<?xml version="1.0" standalone="no"?>
<!DOCTYPE svg PUBLIC "-//W3C//DTD SVG 1.1//EN" "http://www.w3.org/Graphics/SVG/1.1/DTD/svg11.dtd" >
<svg xmlns="http://www.w3.org/2000/svg" xmlns:xlink="http://www.w3.org/1999/xlink" version="1.1">
<metadata>
Created by FontForge 20161003 at Wed Sep 11 05:51:27 2019
 By www-data
Rian Hughes 1993. A Device font. All rights reserved. Device: 6 Salem Road, London W2 4BU. 0171 221 9580 Fax 0171 221 9589 Answerphone 0181 579 6669. e-mail: rianhughes@aol.com or 74774.1365@compuserve.com All rights reserved.
</metadata>
<defs>
<font id="AinsdaleRegular" horiz-adv-x="240" >
  <font-face 
    font-family="AinsdaleRegular"
    font-weight="400"
    font-stretch="normal"
    units-per-em="1000"
    panose-1="2 0 6 8 5 0 0 2 0 4"
    ascent="800"
    descent="-200"
    x-height="704"
    cap-height="802"
    bbox="-31 -143 975.34 1017"
    underline-thickness="20"
    underline-position="-153"
    unicode-range="U+0020-2212"
  />
<missing-glyph horiz-adv-x="480" 
 />
    <glyph glyph-name=".notdef" horiz-adv-x="480" 
 />
    <glyph glyph-name=".null" horiz-adv-x="0" 
 />
    <glyph glyph-name="nonmarkingreturn" horiz-adv-x="333" 
 />
    <glyph glyph-name="space" unicode=" " horiz-adv-x="95" 
 />
    <glyph glyph-name="exclam" unicode="!" horiz-adv-x="158" 
d="M126 801l-15 -664h-49l-15 664h79zM138 37q0 -18 -14.5 -30.5t-39.5 -12.5q-24 0 -39 13t-15 30t15 29.5t39 12.5q25 0 39.5 -12.5t14.5 -29.5z" />
    <glyph glyph-name="quotedbl" unicode="&#x22;" horiz-adv-x="148" 
d="M128 800l-7 -254h-23l-8 254h38zM62 800l-7 -254h-24l-7 254h38z" />
    <glyph glyph-name="numbersign" unicode="#" horiz-adv-x="354" 
d="M329 800l-80 -439h47v-51h-55l-21 -114h76v-50h-85l-26 -148h-50l27 148h-53l-27 -148h-50l27 148h-44v50h53l21 114h-74v51h83l80 439h48l-79 -439h54l81 439h47zM191 310h-54l-19 -114h54z" />
    <glyph glyph-name="dollar" unicode="$" horiz-adv-x="232" 
d="M209 628l-1 -278h-65v283q0 12 -6.5 20t-18.5 8q-25 0 -25 -28v-320q0 -10 1 -16t6.5 -10.5t8 -5.5t15.5 -6l45 -18q38 -16 38 -63l1 -114q0 -76 -66 -85v-63h-46v64q-69 9 -69 80v89h66v-98q0 -26 24 -26q12 0 19 7.5t7 18.5v112q0 16 -5 24t-20 14l-53 19
q-38 14 -38 65v324q0 76 68 84v164h46v-165q68 -11 68 -80z" />
    <glyph glyph-name="ampersand" unicode="&#x26;" horiz-adv-x="253" 
d="M243 230h-28v-144q0 -92 -94 -92q-41 0 -67.5 21.5t-26.5 70.5v119q0 58 40 70q-40 9 -40 61v377q0 49 27 70.5t68 21.5q93 0 93 -91v-241h-69v261q0 27 -25 27q-13 0 -19.5 -8.5t-6.5 -18.5v-416q0 -39 32 -39h20v82h68v-82h28v-49zM147 69v161h-20q-12 0 -22 -10.5
t-10 -25.5v-126q0 -30 26 -30q16 0 21 7.5t5 23.5z" />
    <glyph glyph-name="quotesingle" unicode="'" horiz-adv-x="84" 
d="M63 800l-8 -254h-24l-7 254h39z" />
    <glyph glyph-name="parenleft" unicode="(" horiz-adv-x="135" 
d="M120 -69h-25q-53 0 -71.5 16t-18.5 49v813q0 32 18.5 47.5t71.5 15.5h25v-38h-12q-35 0 -35 -37v-791q0 -37 35 -37h12v-38z" />
    <glyph glyph-name="parenright" unicode=")" horiz-adv-x="156" 
d="M131 -4q0 -33 -19 -49t-72 -16h-25v38h12q35 0 35 37v793q0 37 -35 37h-12v38h25q53 0 72 -16t19 -47v-815z" />
    <glyph glyph-name="asterisk" unicode="*" horiz-adv-x="297" 
d="M281 706l-99 -57l99 -58l-20 -37l-92 74l7 -128h-44l7 128l-96 -71l-20 37l100 55l-99 55l19 38l97 -72l-7 130h44l-8 -130l93 73z" />
    <glyph glyph-name="plus" unicode="+" horiz-adv-x="170" 
d="M153 220h-36v-81h-65v81h-37v49h37v78h65v-78h36v-49z" />
    <glyph glyph-name="comma" unicode="," horiz-adv-x="80" 
d="M77 187l-31 -254h-23v254h54z" />
    <glyph glyph-name="hyphen" unicode="-" horiz-adv-x="227" 
d="M203 218h-188v51h188v-51z" />
    <glyph glyph-name="period" unicode="." horiz-adv-x="138" 
d="M123 36q0 -17 -14.5 -29.5t-39.5 -12.5q-24 0 -39 12.5t-15 29.5t14.5 29.5t39.5 12.5t39.5 -12.5t14.5 -29.5z" />
    <glyph glyph-name="slash" unicode="/" horiz-adv-x="227" 
d="M214 800l-144 -802h-50l146 802h48z" />
    <glyph glyph-name="zero" unicode="0" 
d="M215 86q0 -49 -27 -70.5t-68 -21.5q-93 0 -93 92v627q0 92 93 92q41 0 68 -22t27 -69v-628zM146 65v669q0 27 -25 27t-25 -27v-669q0 -27 24 -27q13 0 19.5 8.5t6.5 18.5z" />
    <glyph glyph-name="one" unicode="1" horiz-adv-x="119" 
d="M94 0h-66v755h-23v46h89v-801z" />
    <glyph glyph-name="two" unicode="2" 
d="M215 0h-188v211q0 21 12 40t31 27l40 17q20 8 28 17.5t8 29.5v392q0 27 -25 27t-25 -28v-383h-69v363q0 92 93 92q41 0 68 -22t27 -69v-389q0 -48 -39 -65l-52 -24q-20 -8 -25 -23q-3 -8 -3 -27v-139h119v-47z" />
    <glyph glyph-name="three" unicode="3" 
d="M215 86q0 -48 -27 -70t-67 -22q-94 0 -94 92v78h68v-95q0 -31 26 -31t26 30v126q0 15 -10 25.5t-22 10.5h-29v49h29q32 0 32 39v416q0 10 -6.5 18.5t-19.5 8.5q-25 0 -25 -27v-385h-69v364q0 92 93 92q41 0 68 -21.5t27 -69.5v-378q0 -52 -40 -61q40 -12 40 -70v-119z
" />
    <glyph glyph-name="four" unicode="4" horiz-adv-x="252" 
d="M242 231h-27v-233h-69v233h-119v459q0 38 7.5 62t22 33.5t25.5 12t29 2.5h104v-520h27v-49zM146 280v473q-30 0 -40 -5t-10 -29v-439h50z" />
    <glyph glyph-name="five" unicode="5" horiz-adv-x="232" 
d="M215 86q0 -49 -27 -70.5t-68 -21.5q-93 0 -93 92v78h69v-95q0 -29 26 -29q24 0 24 28v121q0 23 -10 32.5t-34 9.5h-64v571h167v-49h-98v-472h27q40 0 60.5 -20t20.5 -72v-103z" />
    <glyph glyph-name="six" unicode="6" horiz-adv-x="238" 
d="M215 75q0 -37 -25 -59t-71 -22q-92 0 -92 82v639q0 91 92 91q96 0 96 -88v-371h-69v378q0 32 -25 32t-25 -32v-445h36q40 0 61.5 -20t21.5 -76v-109zM146 70v130q0 12 -6.5 21.5t-18.5 9.5h-25v-161q0 -30 25 -30t25 30z" />
    <glyph glyph-name="seven" unicode="7" horiz-adv-x="191" 
d="M171 357q0 -61 -30 -85l-36 -27q-19 -15 -19 -51v-194h-67v194q0 29 8 46.5t30 33.5l28 22q16 13 16 51v402h-82v49h152v-441z" />
    <glyph glyph-name="eight" unicode="8" 
d="M215 86q0 -49 -27 -70.5t-68 -21.5q-93 0 -93 92v119q0 58 40 70q-40 9 -40 61v377q0 92 93 92q95 0 95 -89v-380q0 -52 -40 -61q40 -12 40 -70v-119zM146 311v417q0 30 -26 30q-24 0 -24 -30v-418q0 -30 26 -30q24 0 24 31zM146 73v120q0 33 -26 33q-24 0 -24 -33v-120
q0 -31 24 -31q26 0 26 31z" />
    <glyph glyph-name="nine" unicode="9" horiz-adv-x="241" 
d="M216 83q0 -90 -92 -90q-96 0 -96 88v85h69v-93q0 -31 25 -31t25 32v156h-36q-40 0 -61.5 19.5t-21.5 76.5v397q0 37 25 59t71 22q92 0 92 -82v-639zM147 279v449q0 30 -25 30t-25 -30v-418q0 -31 25 -31h25z" />
    <glyph glyph-name="colon" unicode=":" horiz-adv-x="138" 
d="M123 665q0 -18 -14.5 -30.5t-39.5 -12.5q-24 0 -39 13t-15 30t15 30t39 13q25 0 39.5 -12.5t14.5 -30.5zM123 37q0 -18 -14.5 -30.5t-39.5 -12.5q-24 0 -39 13t-15 30t15 30t39 13q25 0 39.5 -12.5t14.5 -30.5z" />
    <glyph glyph-name="semicolon" unicode=";" horiz-adv-x="133" 
d="M118 665q0 -17 -14.5 -29.5t-39.5 -12.5q-24 0 -39 12.5t-15 29.5t15 30t39 13q25 0 39.5 -12.5t14.5 -30.5zM82 166l-31 -233h-23v233h54z" />
    <glyph glyph-name="less" unicode="&#x3c;" horiz-adv-x="172" 
d="M155 417l-87 -154l87 -153h-61l-86 153l86 154h61z" />
    <glyph glyph-name="equal" unicode="=" horiz-adv-x="227" 
d="M203 321h-188v56h188v-56zM203 140h-188v56h188v-56z" />
    <glyph glyph-name="greater" unicode="&#x3e;" horiz-adv-x="170" 
d="M162 261l-88 -153h-57l86 153l-86 154h57z" />
    <glyph glyph-name="question" unicode="?" 
d="M215 714l-2 -388q0 -28 -13 -50l-37 -47q-3 -3 -7 -12t-8 -32t-4 -53h-70q0 82 25 113l33 42q15 20 15 58v378q0 35 -25 35q-26 0 -26 -35v-378h-69v367q0 93 93 93q41 0 68 -22t27 -69zM161 37q0 -17 -15 -30t-39 -13t-39 13t-15 30t15 29.5t39 12.5t39 -12.5t15 -29.5z
" />
    <glyph glyph-name="at" unicode="@" horiz-adv-x="475" 
d="M450 93q0 -94 -91 -94h-241q-91 0 -91 95v612q0 94 91 94h241q91 0 91 -95v-612zM381 78v643q0 14 -9.5 22t-19.5 8h-226q-12 0 -21 -8.5t-9 -21.5v-643q0 -14 9.5 -22t19.5 -8h226q12 0 21 8.5t9 21.5zM327 100h-61v28q-1 -3 -4 -8.5t-18 -14t-37 -8.5q-32 0 -46 18.5
t-14 57.5v111q0 40 15 57t53 17h47v272q0 11 -7 18.5t-18 7.5q-25 0 -25 -28v-202h-65v194q0 46 22.5 65.5t67.5 19.5q90 0 90 -82v-523zM262 175v135h-26q-24 0 -24 -31v-106q0 -26 25 -26t25 28z" />
    <glyph glyph-name="A" unicode="A" 
d="M215 0h-69v230h-50v-230h-69v714q0 91 93 91q41 0 68 -22t27 -69v-714zM146 278v456q0 27 -25 27t-25 -27v-456h50z" />
    <glyph glyph-name="B" unicode="B" 
d="M215 96q0 -55 -22.5 -75.5t-78.5 -20.5h-87v802h87q52 0 76.5 -19.5t24.5 -73.5v-373q0 -52 -40 -61q40 -12 40 -70v-109zM146 311v417q0 13 -8 21.5t-22 8.5h-20v-480h21q14 0 21.5 10t7.5 23zM146 77v116q0 13 -7.5 23t-21.5 10h-21v-179h20q13 0 21.5 8.5t8.5 21.5z
" />
    <glyph glyph-name="C" unicode="C" 
d="M215 86q0 -49 -27 -70.5t-68 -21.5q-93 0 -93 91v628q0 92 93 92q41 0 68 -21.5t27 -69.5v-367h-69v387q0 27 -25 27t-25 -27v-669q0 -27 24 -27q13 0 19.5 8.5t6.5 18.5v163h69v-142z" />
    <glyph glyph-name="D" unicode="D" 
d="M215 93q0 -53 -24 -73t-77 -20h-87v802h87q50 0 75.5 -20t25.5 -67v-622zM146 77v651q0 13 -8 21.5t-22 8.5h-20v-711h20q13 0 21.5 8.5t8.5 21.5z" />
    <glyph glyph-name="E" unicode="E" horiz-adv-x="157" 
d="M137 -2h-110v802h110v-49h-41v-475h41v-48h-41v-181h41v-49z" />
    <glyph glyph-name="F" unicode="F" horiz-adv-x="152" 
d="M137 228h-41v-228h-69v802h110v-49h-41v-477h41v-48z" />
    <glyph glyph-name="G" unicode="G" horiz-adv-x="235" 
d="M215 86q0 -49 -27 -70.5t-68 -21.5q-93 0 -93 91v628q0 92 93 92q41 0 68 -21.5t27 -69.5v-322l-69 1v341q0 27 -25 27t-25 -27v-669q0 -27 24 -27q13 0 19.5 8.5t6.5 18.5v163h-22v49h91v-191z" />
    <glyph glyph-name="H" unicode="H" 
d="M215 0h-69v230h-50v-230h-69v802h69v-524h50v524h69v-802z" />
    <glyph glyph-name="I" unicode="I" horiz-adv-x="121" 
d="M96 0h-68v802h68v-802z" />
    <glyph glyph-name="J" unicode="J" horiz-adv-x="226" 
d="M201 86q0 -49 -26 -70.5t-67 -21.5q-93 0 -93 91v194h69v-214q0 -27 25 -27t25 27v736h67v-715z" />
    <glyph glyph-name="K" unicode="K" horiz-adv-x="237" 
d="M215 0h-69v196q0 32 -27 32h-23v-228h-69v802h69v-526h26q24 0 24 35v491h69v-464q0 -54 -40 -63q40 -12 40 -70v-205z" />
    <glyph glyph-name="L" unicode="L" horiz-adv-x="142" 
d="M127 0h-100v802h69v-755h31v-47z" />
    <glyph glyph-name="M" unicode="M" horiz-adv-x="358" 
d="M333 -2h-69v725q0 30 -25 30h-24v-755h-69v755h-26q-24 0 -24 -30v-725h-69v713q0 90 91 90h124q48 0 69.5 -22t21.5 -67v-714z" />
    <glyph glyph-name="N" unicode="N" 
d="M215 -6h-69v740q0 27 -25 27t-25 -27v-740h-69v719q0 92 93 92q41 0 68 -22t27 -69v-720z" />
    <glyph glyph-name="O" unicode="O" 
d="M215 86q0 -49 -27 -70.5t-68 -21.5q-93 0 -93 92v627q0 92 93 92q41 0 68 -22t27 -69v-628zM146 65v669q0 27 -25 27t-25 -27v-669q0 -27 24 -27q13 0 19.5 8.5t6.5 18.5z" />
    <glyph glyph-name="P" unicode="P" horiz-adv-x="235" 
d="M215 326q0 -53 -21.5 -74.5t-65.5 -21.5h-32v-230h-69v802h87q54 0 77.5 -19.5t23.5 -72.5v-384zM146 311v417q0 13 -8 21.5t-22 8.5h-20v-480h16q14 0 24 8t10 25z" />
    <glyph glyph-name="Q" unicode="Q" 
d="M215 89q0 -70 -60 -87l45 -107h-66l-19 102q-88 0 -88 92v624q0 92 93 92q41 0 68 -21.5t27 -69.5v-625zM146 68v667q0 27 -25 27t-25 -27v-667q0 -27 24 -27q13 0 19.5 8.5t6.5 18.5z" />
    <glyph glyph-name="R" unicode="R" horiz-adv-x="239" 
d="M215 0h-69v196q0 32 -27 32h-23v-228h-69v802h98q48 0 69 -24t21 -81v-361q0 -52 -40 -61q40 -12 40 -70v-205zM146 303v418q0 32 -27 32h-23v-477h26q12 0 18 8.5t6 18.5z" />
    <glyph glyph-name="S" unicode="S" horiz-adv-x="228" 
d="M208 87q0 -49 -27 -71t-68 -22q-93 0 -93 92v98h69v-114q0 -32 25 -32t25 32v114q0 18 -3 27q-5 15 -25 23l-52 24q-39 17 -39 65v390q0 92 93 92q41 0 68 -22t27 -69v-367h-69v386q0 28 -25 28t-25 -27v-392q0 -19 8 -28.5t28 -18.5l40 -17q19 -8 31 -26.5t12 -39.5
v-125z" />
    <glyph glyph-name="T" unicode="T" horiz-adv-x="157" 
d="M142 753h-30v-753h-69v753h-30v49h129v-49z" />
    <glyph glyph-name="U" unicode="U" 
d="M215 86q0 -49 -27 -70.5t-68 -21.5q-93 0 -93 92v716h69v-737q0 -27 24 -27q13 0 19.5 8.5t6.5 18.5v737h69v-716z" />
    <glyph glyph-name="V" unicode="V" horiz-adv-x="244" 
d="M229 802l-23 -730q-1 -38 -26.5 -58t-59.5 -20q-35 0 -57.5 19t-23.5 59l-25 730h72l13 -733q0 -26 21 -26q23 0 23 26l13 733h73z" />
    <glyph glyph-name="W" unicode="W" horiz-adv-x="358" 
d="M333 92q0 -93 -91 -93h-124q-91 0 -91 95v707h69v-723q0 -30 24 -30h26v753h69v-753h24q25 0 25 30v723h69v-709z" />
    <glyph glyph-name="X" unicode="X" 
d="M215 0h-69v199q0 11 -6 21.5t-19 10.5q-25 0 -25 -32v-198h-69v204q0 58 40 70q-40 9 -40 61v466h69v-497q0 -9 6 -19t19 -10t19 10t6 19v497h69v-466q0 -52 -40 -61q40 -12 40 -70v-205z" />
    <glyph glyph-name="Y" unicode="Y" 
d="M215 297q0 -25 -15 -44t-45 -23v-230h-68v229q-60 18 -60 69v504h69v-497q0 -11 6.5 -20t18.5 -9q25 0 25 29v497h69v-505z" />
    <glyph glyph-name="Z" unicode="Z" horiz-adv-x="204" 
d="M184 0h-164v223q0 46 37 61l29 11q18 7 23 13.5t5 23.5v421h-94v49h164v-483q0 -51 -33 -64l-40 -15q-15 -5 -21.5 -14t-6.5 -31v-147h101v-48z" />
    <glyph glyph-name="bracketleft" unicode="[" horiz-adv-x="136" 
d="M131 -69h-103v941h103v-29h-35v-883h35v-29z" />
    <glyph glyph-name="backslash" unicode="\" horiz-adv-x="242" 
d="M214 -2h-50l-144 802h48z" />
    <glyph glyph-name="bracketright" unicode="]" horiz-adv-x="133" 
d="M108 -69h-103v29h35v883h-35v29h103v-941z" />
    <glyph glyph-name="asciicircum" unicode="^" horiz-adv-x="241" 
d="M216 200l-96 48l-97 -48v59l97 48l96 -46v-61z" />
    <glyph glyph-name="underscore" unicode="_" horiz-adv-x="158" 
d="M184 -100h-215v50h215v-50z" />
    <glyph glyph-name="grave" unicode="`" 
d="M213 822l-185 47v51l185 -46v-52z" />
    <glyph glyph-name="a" unicode="a" horiz-adv-x="236" 
d="M211 0h-61v28q-1 -3 -4 -8.5t-18 -14t-37 -8.5q-32 0 -46 18.5t-14 57.5v133q0 40 15 57t53 17h47v355q0 11 -7 18.5t-18 7.5q-25 0 -25 -28v-285h-65v276q0 46 22.5 66t67.5 20q43 0 66.5 -21t23.5 -61v-628zM146 74v158h-26q-24 0 -24 -31v-128q0 -26 25 -26t25 27z
" />
    <glyph glyph-name="b" unicode="b" horiz-adv-x="236" 
d="M211 73q0 -39 -14 -57.5t-46 -18.5q-22 0 -36.5 7.5t-18.5 15.5l-4 8v-28h-61v802h64v-125q1 3 4 8.5t18 14t37 8.5q57 0 57 -76v-559zM146 77v548q0 31 -26 31q-25 0 -25 -32v-547q0 -30 26 -30q25 0 25 30z" />
    <glyph glyph-name="c" unicode="c" horiz-adv-x="237" 
d="M212 348h-66v287q0 12 -6.5 20t-18.5 8q-25 0 -25 -28v-566q0 -26 24 -26q12 0 19 7.5t7 18.5v158h66l-1 -147q0 -46 -22.5 -66t-67.5 -20q-43 0 -66.5 21t-23.5 61v548q0 46 22.5 66t67.5 20q43 0 67 -21.5t24 -60.5v-280z" />
    <glyph glyph-name="d" unicode="d" horiz-adv-x="236" 
d="M211 0h-61v28q-1 -3 -4 -8.5t-18 -14t-37 -8.5q-32 0 -46 18.5t-14 57.5v559q0 76 57 76q22 0 36.5 -8t18.5 -16l4 -7v125h64v-802zM147 77v547q0 32 -25 32q-26 0 -26 -31v-548q0 -30 25 -30q26 0 26 30z" />
    <glyph glyph-name="e" unicode="e" horiz-adv-x="237" 
d="M212 79q0 -46 -22.5 -65.5t-68.5 -19.5q-43 0 -66.5 21t-23.5 61v548q0 46 22.5 66t67.5 20q42 0 66.5 -22.5t24.5 -63.5v-392h-116v-163q0 -26 24 -26q12 0 19 7.5t7 18.5v97h66v-87zM146 281v354q0 12 -6.5 20t-18.5 8q-25 0 -25 -28v-354h50z" />
    <glyph glyph-name="f" unicode="f" horiz-adv-x="228" 
d="M213 347h-66v384q0 28 -25 28q-26 0 -26 -28v-452h95v-48h-95v-231h-65v231h-26v47h26v443q0 46 22.5 65.5t67.5 19.5q43 0 67.5 -21.5t24.5 -60.5v-377z" />
    <glyph glyph-name="g" unicode="g" horiz-adv-x="238" 
d="M213 625l-1 -312q0 -45 -22.5 -64.5t-67.5 -19.5q-6 0 -25 1l1 -36q0 -5 0.5 -9.5t1 -7.5t2.5 -5.5t2.5 -4t4.5 -3.5l5 -2.5t6.5 -3t7.5 -3.5l45 -18q39 -16 39 -62v-132q0 -86 -90 -86q-43 0 -67 21.5t-24 60.5v107h66v-116q0 -26 24 -26q12 0 19 7.5t7 18.5l1 132
q0 16 -5 24t-21 14l-53 19q-38 14 -37 64v439q0 44 22.5 64.5t68.5 20.5l14 93h66l-38 -99q48 -27 48 -76zM147 303v330q0 11 -7 19.5t-18 8.5q-25 0 -25 -28v-224v-132h24q12 0 19 7.5t7 18.5z" />
    <glyph glyph-name="h" unicode="h" horiz-adv-x="236" 
d="M211 0h-65v616q0 33 -25 33t-25 -33v-616h-66v802h65v-125q1 3 4 8.5t18 14t37 8.5q57 0 57 -70v-638z" />
    <glyph glyph-name="i" unicode="i" horiz-adv-x="116" 
d="M99 776q0 -10 -11.5 -19.5t-27.5 -9.5q-17 0 -27.5 9t-10.5 20t11 20.5t27 9.5t27.5 -10t11.5 -20zM93 0h-66v704h66v-704z" />
    <glyph glyph-name="j" unicode="j" horiz-adv-x="116" 
d="M93 -133h-65v836h65v-836zM101 776q0 -10 -11.5 -19.5t-27.5 -9.5q-17 0 -27.5 9t-10.5 20t11 20.5t27 9.5t27.5 -10t11.5 -20z" />
    <glyph glyph-name="k" unicode="k" horiz-adv-x="235" 
d="M211 -1h-66v201q0 30 -23 30h-26v-231h-66v802h66v-524h26q24 0 24 32v394h65v-365q0 -54 -40 -63q40 -12 40 -70v-206z" />
    <glyph glyph-name="l" unicode="l" horiz-adv-x="121" 
d="M96 0h-66v802h66v-802z" />
    <glyph glyph-name="m" unicode="m" horiz-adv-x="353" 
d="M328 -2h-64v627q0 31 -27 31q-25 0 -25 -31v-627h-65v627q0 31 -27 31q-24 0 -24 -31v-627h-65v707h65q-1 -15 0 -28q1 3 4.5 8.5t18.5 14t35 8.5q42 0 58 -31q1 3 4.5 8.5t18.5 14t36 8.5q31 0 44 -19t13 -59v-632z" />
    <glyph glyph-name="n" unicode="n" horiz-adv-x="236" 
d="M211 0h-65v625q0 31 -26 31q-24 0 -24 -31v-625h-66v704h66l-1 -27q1 3 4 8.5t18 14t37 8.5q57 0 57 -76v-632z" />
    <glyph glyph-name="o" unicode="o" horiz-adv-x="237" 
d="M212 628l-1 -548q0 -46 -22.5 -66t-67.5 -20q-43 0 -66.5 21t-23.5 61v548q0 46 22.5 66t67.5 20q43 0 67 -21.5t24 -60.5zM146 69v566q0 28 -25 28t-25 -28v-566q0 -26 24 -26q12 0 19 7.5t7 18.5z" />
    <glyph glyph-name="p" unicode="p" horiz-adv-x="237" 
d="M211 74q0 -76 -57 -76q-22 0 -36.5 8t-18.5 16l-4 7l1 -162h-65v837h64v-27q1 3 4 8.5t18 14t37 8.5q57 0 57 -76v-558zM146 81v544q0 31 -26 31q-25 0 -25 -31v-543q0 -31 25 -31q26 0 26 30z" />
    <glyph glyph-name="q" unicode="q" horiz-adv-x="236" 
d="M211 -133h-65l1 162q-1 -3 -4 -8.5t-18 -14t-37 -8.5q-57 0 -57 76v558q0 76 57 76q22 0 36.5 -8t18.5 -16l4 -7v27h64v-837zM147 82v543q0 31 -25 31q-26 0 -26 -31v-544q0 -30 26 -30q25 0 25 31z" />
    <glyph glyph-name="r" unicode="r" horiz-adv-x="221" 
d="M211 347h-65v278q0 31 -26 31q-25 0 -25 -31q0 -489 1 -625h-65v704h64v-27q1 3 4 8.5t18 14t37 8.5q57 0 57 -74v-287z" />
    <glyph glyph-name="s" unicode="s" horiz-adv-x="232" 
d="M209 628l-1 -278h-65v283q0 12 -6.5 20t-18.5 8q-25 0 -25 -28v-320q0 -10 1 -16t6.5 -10.5t8 -5.5t15.5 -6l45 -18q38 -16 38 -63l1 -114q1 -46 -22 -66t-68 -20q-43 0 -67 21.5t-24 60.5v89h66v-98q0 -26 24 -26q12 0 19 7.5t7 18.5v114q0 17 -5 24.5t-20 13.5l-53 20
q-38 14 -38 64v322q0 47 22.5 66t68.5 19q43 0 67 -21.5t24 -60.5z" />
    <glyph glyph-name="t" unicode="t" horiz-adv-x="227" 
d="M219 79q0 -46 -22.5 -65.5t-67.5 -19.5q-43 0 -67.5 22t-24.5 61v154h-32v48h32v520h65v-520h100v-48h-100v-164q0 -12 7.5 -19t18.5 -7q12 0 18.5 7.5t6.5 18.5v99h66v-87z" />
    <glyph glyph-name="u" unicode="u" horiz-adv-x="236" 
d="M212 0h-62v28q-1 -3 -4 -8.5t-18 -14t-37 -8.5q-60 0 -60 80v627h65v-626q0 -31 25 -31q26 0 26 30v627h65v-704z" />
    <glyph glyph-name="v" unicode="v" horiz-adv-x="242" 
d="M227 704l-20 -629q-1 -48 -22.5 -64t-61.5 -16q-77 0 -79 80l-22 629h69l11 -638q0 -25 21 -25t21 25l12 638h71z" />
    <glyph glyph-name="w" unicode="w" horiz-adv-x="353" 
d="M328 104q0 -104 -80 -104h-125q-92 0 -92 98v606h65v-627q0 -30 27 -30h23v657h66v-657h23q13 0 20.5 9t7.5 21v627h65v-600z" />
    <glyph glyph-name="x" unicode="x" horiz-adv-x="235" 
d="M210 1h-64v206q0 11 -6.5 19.5t-17.5 8.5q-10 0 -18 -7.5t-8 -20.5v-206h-65v204q0 58 40 70q-40 9 -40 63v366h65v-394q0 -31 25 -31q11 0 18 8.5t7 22.5v394h64v-366q0 -54 -40 -63q40 -12 40 -73v-201z" />
    <glyph glyph-name="y" unicode="y" horiz-adv-x="236" 
d="M211 -57q0 -45 -22.5 -64.5t-67.5 -19.5q-90 0 -90 79v12h65v-12q0 -29 25 -29q27 0 29 29v92q-1 -4 -4 -9t-18 -14t-37 -9q-32 0 -46 18.5t-14 58.5v629h65v-624q0 -32 25 -32q26 0 26 30l-1 626h65v-761z" />
    <glyph glyph-name="z" unicode="z" horiz-adv-x="189" 
d="M169 0h-151v192q0 34 10.5 49.5t35.5 28.5l15 9q8 4 11.5 6t8.5 10.5t5 19.5v340h-86v49h151v-373q0 -39 -8.5 -55.5t-28.5 -27.5l-22 -12q-11 -6 -15.5 -10t-8 -12.5t-3.5 -22.5v-144h86v-47z" />
    <glyph glyph-name="braceleft" unicode="{" horiz-adv-x="184" 
d="M169 -69h-25q-53 0 -71.5 16t-18.5 49v178q0 51 -39 65v27q39 13 39 64v479q0 32 18.5 47.5t71.5 15.5h25v-38h-12q-35 0 -35 -37v-490q0 -47 -44 -55q44 -9 44 -56v-190q0 -37 35 -37h12v-38z" />
    <glyph glyph-name="bar" unicode="|" horiz-adv-x="99" 
d="M74 -68h-46v941h46v-941z" />
    <glyph glyph-name="braceright" unicode="}" horiz-adv-x="189" 
d="M169 241q-39 -14 -39 -65v-178q0 -33 -18.5 -49t-71.5 -16h-25v38h12q35 0 35 37v190q0 47 44 56q-44 8 -44 55v490q0 37 -35 37h-12v38h25q53 0 71.5 -15.5t18.5 -47.5v-479q0 -51 39 -64v-27z" />
    <glyph glyph-name="asciitilde" unicode="~" horiz-adv-x="237" 
d="M215 262q0 -61 -61 -61q-25 0 -38 8.5t-17.5 17t-10.5 8.5t-6 -5v-27h-58v25q0 61 62 61q18 0 31 -6t17.5 -13t9 -13t8.5 -6q6 0 6 6v29h57v-24z" />
    <glyph glyph-name="nbspace" unicode="&#xa0;" horiz-adv-x="158" 
 />
    <glyph glyph-name="exclamdown" unicode="&#xa1;" horiz-adv-x="158" 
d="M138 763q0 -17 -15 -29.5t-39 -12.5q-25 0 -39.5 12.5t-14.5 29.5q0 18 14.5 30.5t39.5 12.5q24 0 39 -13t15 -30zM121 -1h-79l15 664h49z" />
    <glyph glyph-name="cent" unicode="&#xa2;" horiz-adv-x="237" 
d="M212 348h-66v287q0 12 -6.5 20t-18.5 8q-25 0 -25 -28v-566q0 -26 24 -26q12 0 19 7.5t7 18.5v158h66l-1 -147q0 -77 -68 -85v-63h-46v64q-66 11 -66 80v548q0 75 65 84v165h46v-165q70 -9 70 -80v-280z" />
    <glyph glyph-name="sterling" unicode="&#xa3;" 
d="M215 0h-188v713q0 49 27 70.5t68 21.5q93 0 93 -91v-322h-69v342q0 27 -25 27q-13 0 -19.5 -8.5t-6.5 -18.5v-456h95v-48h-95v-183h120v-47z" />
    <glyph glyph-name="currency" unicode="&#xa4;" horiz-adv-x="985" 
d="M975 337q4 -29 -39 -76l-41 -30q-16 -11 -31 -2t-12 26q-18 -13 -32.5 6.5t1.5 36.5l-62 -48q-14 -11 -28 -6t-16.5 17.5t9.5 25.5l117 104q-46 28 -35 86q5 23 27.5 22t23.5 -22q2 -35 10 -44t52 -25l11 -4q38 -13 45 -66v-1zM762 561q29 -86 -13 -168.5t-129 -110.5
t-169 13.5t-110 128.5t13.5 168.5t128.5 109.5q77 25 151 -5q20 2 25 21q5 13 -0.5 26t-18.5 18q-12 4 -13.5 15.5t7 18.5t19.5 2q29 -12 42 -39t2 -54q-7 -18 -22 -29q63 -45 86 -115h1zM797 174l-1 -141q0 -33 -31 -33h-360q-32 0 -32 32l1 142q0 33 31 33h358
q34 0 34 -33zM324 411l-40 -51q16 -63 -28 -118q-36 -45 -93 -51.5t-101 29.5t-49.5 93.5t30.5 101.5q37 45 94 51.5t101 -29.5q10 -8 24 -26h62zM702 548q1 26 -17 44t-44 20q-26 1 -45.5 -17.5t-19.5 -44.5q0 -25 18 -43.5t44 -19.5t44.5 17t19.5 44zM528 550v1
q0 26 -17.5 44t-42.5 19q-26 1 -45 -17.5t-20 -44.5q-1 -25 17 -44t44 -20t45 17.5t19 44.5zM672 416q8 14 2.5 23t-21.5 9h-43v-42q0 -14 -11 -19.5t-21.5 0.5t-10.5 20v41h-114q-16 0 -21.5 -9t1.5 -23q41 -79 118 -78.5t121 78.5zM743 164v1q-2 7 -10.5 11t-16.5 1
q-7 -2 -11 -11t-1 -16q2 -7 10.5 -10.5t16.5 -0.5q18 6 12 25zM771 106q-2 7 -10.5 11t-16.5 1q-7 -2 -11 -10.5t-1 -16.5q2 -7 11 -10.5t16 -0.5q18 8 12 26zM711 106h-1q-2 7 -10.5 11t-15.5 1q-7 -2 -11 -10.5t-1 -16.5q2 -7 11 -10.5t16 -0.5q18 8 12 26zM739 50
q-2 7 -10.5 10.5t-16.5 1.5q-8 -3 -11.5 -11.5t-0.5 -16.5q2 -7 10.5 -10.5t16.5 0.5q19 6 12 26zM683 159q0 8 -6 14t-14 6h-181q-8 0 -13.5 -6t-5.5 -14t6 -14t14 -6h180q8 0 14 6t6 14zM651 106h-1q-2 8 -10.5 11.5t-15.5 1.5t-11 -10.5t-1 -16.5q2 -7 11 -10.5t16 -0.5
q18 6 12 25zM678 50h-1q-2 8 -10 11.5t-16 0.5q-7 -2 -11 -10.5t-1 -16.5q2 -7 10.5 -10.5t16.5 0.5q18 6 12 25zM588 106q-2 8 -10.5 12t-16.5 1q-7 -2 -10.5 -10.5t-1.5 -16.5q3 -7 11.5 -10.5t15.5 -0.5q18 6 12 25zM618 50h-1q-2 8 -10 11.5t-16 0.5q-7 -2 -11 -10.5
t-1 -16.5q2 -7 10.5 -10.5t16.5 0.5q18 6 12 25zM528 106q-2 8 -10.5 12t-16.5 1q-7 -2 -10.5 -10.5t-1.5 -16.5q3 -7 11.5 -10.5t15.5 -0.5q18 6 12 25zM440 166v1q-3 7 -11 10.5t-16 1.5q-7 -3 -11 -12t-1 -16t11.5 -10.5t15.5 -0.5q18 7 12 26zM556 50q-2 8 -10.5 11.5
t-16.5 0.5q-7 -2 -10.5 -10.5t-1.5 -16.5q3 -7 11.5 -10.5t15.5 0.5q18 6 12 25zM258 305q0 6 -7 8h-3q-2 2 -2 3q-2 2 2 2q2 0 5 -4l5 5q-4 6 -10 6q-10 0 -10 -9q0 -7 7 -9h3q3 -1 3 -3t-3 -2l-5 3l-5 -4q5 -6 10 -6q10 0 10 10zM468 107h-1q-2 8 -10.5 11.5t-16.5 1.5
q-7 -2 -10.5 -10.5t-1.5 -16.5q3 -7 11.5 -10.5t16.5 -0.5q18 6 12 25zM232 296v7h-11v4h11v6h-11v4h11v7h-18v-28h18zM496 52q-8 19 -28 12q-7 -2 -10.5 -10.5t-1.5 -16.5q3 -7 11.5 -10.5t16.5 -0.5q17 7 12 26zM179 337v30h-7v-14v-1l-22 17v-30h8v13v2zM206 296v28h-7
v-11h-14v11h-8v-28h8v11h13l1 -11h7zM107 395q0 7 -5.5 13t-13.5 6t-13.5 -5.5t-5.5 -12.5q0 -8 5.5 -13.5t13.5 -5.5q7 0 13 5.5t6 12.5zM146 341l-17 27l-18 -27l8 -3l2 5h15l3 -5zM171 300v13h-18v-6h10v-4q-1 -1 -5 -1q-10 0 -10 8t9 8q3 0 8 -3l5 4q-7 6 -13 6
q-7 0 -11.5 -4.5t-4.5 -10.5q0 -15 17 -15q7 0 13 5zM436 52q-3 8 -11.5 11.5t-15.5 0.5t-11 -11.5t-1 -15.5t11.5 -10.5t15.5 -0.5q18 7 12 26zM107 339v28h-7v-28h7zM96 343l-8 8q3 3 3 7q0 9 -10 9h-11v-28h8v9h3l1 -1l8 -9zM135 310v14h-7v-14q0 -8 -7 -8t-7 8v14h-8
v-14q0 -15 15 -15q14 0 14 15zM157 262q0 7 -7 9h-1l1 2l7 8h-20v-7h6h2l-1 -1l-6 -8h8q3 0 3 -3t-3 -3q-1 0 -4 4l-6 -4q5 -7 10 -7q11 0 11 10zM99 296v28h-8v-11h-13v11h-8v-28h8v11h13v-11h8zM133 273q0 9 -10 9t-10 -9q0 -7 6 -9q1 0 2 -1l-1 -1l-6 -7l7 -3l9 13
q3 5 3 8zM109 273q0 9 -10 9t-10 -9q0 -7 6 -9q1 0 2 -1l-1 -1l-6 -7l7 -3l9 13q3 5 3 8zM83 253v30l-16 -13l6 -5l3 3l-1 -3v-12h8zM642 537q-2 -23 -25 -23q-10 0 -16.5 7.5t-6.5 18.5q0 9 7.5 15.5t17.5 5.5t16.5 -7.5t5.5 -16.5h1zM500 539q0 -10 -7 -16.5t-17 -6.5
t-17 7.5t-7 18.5q0 10 7.5 16.5t17.5 5.5q23 -4 23 -24v-1zM101 396q0 -13 -13 -13q-14 0 -14 13q0 12 14 12q5 0 9 -3.5t4 -8.5zM132 349h-7l4 6zM83 358q0 -3 -3 -3h-2v5h2q3 0 3 -2zM126 273q0 -3 -3 -3t-3 3q0 2 3 2t3 -2zM102 273q0 -3 -3 -3t-3 3q0 2 3 2q1 0 3 -2z
M97 391l-4 4q-3 -3 -5 -3q-4 0 -4 3q0 4 4 4q2 0 5 -3l4 4q-5 5 -9 5q-10 0 -10 -10q0 -9 10 -9q4 0 9 5z" />
    <glyph glyph-name="yen" unicode="&#xa5;" 
d="M215 228h-60v-228h-68v228h-60v50h60v106q-30 6 -45 25.5t-15 43.5v349h69v-342q0 -11 6.5 -20t18.5 -9q25 0 25 29v342h69v-350q0 -58 -60 -68v-106h60v-50z" />
    <glyph glyph-name="dieresis" unicode="&#xa8;" horiz-adv-x="243" 
d="M228 805q0 -11 -11.5 -21t-27.5 -10q-17 0 -27.5 10t-10.5 21t11 21t27 10t27.5 -10t11.5 -21zM101 805q0 -11 -11.5 -21t-27.5 -10q-17 0 -27.5 10t-10.5 21t11 21t27 10t27.5 -10t11.5 -21z" />
    <glyph glyph-name="copyright" unicode="&#xa9;" horiz-adv-x="475" 
d="M450 93q0 -94 -91 -94h-241q-91 0 -91 95v612q0 94 91 94h241q91 0 91 -95v-612zM381 78v643q0 14 -9.5 22t-19.5 8h-226q-12 0 -21 -8.5t-9 -21.5v-643q0 -14 9.5 -22t19.5 -8h226q12 0 21 8.5t9 21.5zM327 377h-66v251q0 29 -25 29t-25 -28v-460q0 -11 6.5 -18.5
t17.5 -7.5q12 0 19 7.5t7 18.5v83h66l-1 -72q-1 -46 -23 -65.5t-67 -19.5q-90 0 -90 82v440q0 47 22.5 66.5t67.5 19.5q43 0 67 -21.5t24 -60.5v-244z" />
    <glyph glyph-name="ordfeminine" unicode="&#xaa;" horiz-adv-x="236" 
d="M211 129h-61v28q-1 -3 -4 -8.5t-18 -14t-37 -8.5q-32 0 -46 18.5t-14 57.5v162q0 40 15 57t53 17h47v291q0 11 -7 18.5t-18 7.5q-25 0 -25 -28v-220h-65v211q0 46 22.5 66t67.5 20q43 0 66.5 -21t23.5 -61v-593zM211 1h-180v51h180v-51zM146 203v187h-26q-24 0 -24 -31
v-157q0 -26 25 -26t25 27z" />
    <glyph glyph-name="guillemotleft" unicode="&#xab;" horiz-adv-x="294" 
d="M277 417l-87 -154l87 -153h-61l-86 153l86 154h61zM155 417l-87 -154l87 -153h-61l-86 153l86 154h61z" />
    <glyph glyph-name="registered" unicode="&#xae;" horiz-adv-x="475" 
d="M450 93q0 -94 -91 -94h-241q-91 0 -91 95v612q0 94 91 94h241q91 0 91 -95v-612zM381 78v643q0 14 -9.5 22t-19.5 8h-226q-12 0 -21 -8.5t-9 -21.5v-643q0 -14 9.5 -22t19.5 -8h226q12 0 21 8.5t9 21.5zM328 99h-67v166q0 31 -27 31h-23v-197h-67v601h96q47 0 67.5 -23.5
t20.5 -78.5v-194q0 -52 -40 -61q40 -12 40 -70v-174zM261 370v251q0 31 -27 31h-23v-309h26q12 0 18 8.5t6 18.5z" />
    <glyph glyph-name="macron" unicode="&#xaf;" horiz-adv-x="236" 
d="M211 778h-188v51h188v-51z" />
    <glyph glyph-name="degree" unicode="&#xb0;" horiz-adv-x="226" 
d="M201 722l-1 -415q0 -47 -22 -66.5t-68 -19.5q-43 0 -66.5 21.5t-23.5 61.5v415q0 46 22.5 66t67.5 20q43 0 67 -21.5t24 -61.5zM135 296v433q0 12 -7 20.5t-18 8.5q-25 0 -25 -29v-433q0 -12 6.5 -19.5t17.5 -7.5q12 0 19 7.5t7 19.5z" />
    <glyph glyph-name="acute" unicode="&#xb4;" 
d="M213 869l-185 -47v52l185 46v-51z" />
    <glyph glyph-name="paragraph" unicode="&#xb6;" horiz-adv-x="213" 
d="M188 -68h-46v555h-24q-44 0 -65.5 22t-21.5 75v124q0 53 23.5 72.5t77.5 19.5h56v-868z" />
    <glyph glyph-name="periodcentered" unicode="&#xb7;" horiz-adv-x="138" 
d="M123 257q0 -23 -14.5 -39.5t-39.5 -16.5q-24 0 -39 16.5t-15 39.5t15 39.5t39 16.5q25 0 39.5 -16.5t14.5 -39.5z" />
    <glyph glyph-name="cedilla" unicode="&#xb8;" horiz-adv-x="238" 
d="M213 -83l-190 -47v55l190 47v-55z" />
    <glyph glyph-name="ordmasculine" unicode="&#xba;" horiz-adv-x="237" 
d="M212 722l-1 -511q0 -47 -22 -66t-68 -19q-90 0 -90 82v511q0 46 22.5 65.5t67.5 19.5q43 0 67 -21.5t24 -60.5zM211 1h-180v51h180v-51zM146 200v529q0 12 -6.5 20t-18.5 8q-25 0 -25 -28v-529q0 -11 6.5 -18.5t17.5 -7.5q12 0 19 7.5t7 18.5z" />
    <glyph glyph-name="guillemotright" unicode="&#xbb;" horiz-adv-x="294" 
d="M286 263l-86 -153h-61l87 153l-87 154h61zM164 263l-86 -153h-61l87 153l-87 154h61z" />
    <glyph glyph-name="questiondown" unicode="&#xbf;" 
d="M189 762q0 -17 -15 -29.5t-39 -12.5t-39 12.5t-15 29.5t15 30t39 13t39 -13t15 -30zM215 87q0 -93 -93 -93q-41 0 -68 22t-27 69l2 388q0 28 13 50l37 47q3 3 7 12t8 32t4 53h70q0 -82 -25 -113l-33 -42q-15 -20 -15 -58v-378q0 -35 25 -35q26 0 26 35v378h69v-367z" />
    <glyph glyph-name="Agrave" unicode="&#xc0;" 
d="M213 832l-185 47v51l185 -46v-52zM215 0h-69v230h-50v-230h-69v714q0 91 93 91q41 0 68 -22t27 -69v-714zM146 278v456q0 27 -25 27t-25 -27v-456h50z" />
    <glyph glyph-name="Aacute" unicode="&#xc1;" 
d="M213 884l-185 -48v52l185 47v-51zM215 0h-69v230h-50v-230h-69v714q0 91 93 91q41 0 68 -22t27 -69v-714zM146 278v456q0 27 -25 27t-25 -27v-456h50z" />
    <glyph glyph-name="Acircumflex" unicode="&#xc2;" 
d="M216 833l-96 47l-97 -47v59l97 48l96 -47v-60zM215 0h-69v230h-50v-230h-69v714q0 91 93 91q41 0 68 -22t27 -69v-714zM146 278v456q0 27 -25 27t-25 -27v-456h50z" />
    <glyph glyph-name="Atilde" unicode="&#xc3;" 
d="M215 908q0 -61 -61 -61q-25 0 -38 8.5t-17.5 17t-10.5 8.5t-6 -5v-27h-58v25q0 61 62 61q18 0 31 -6t17.5 -13t9 -13t8.5 -6q6 0 6 6v29h57v-24zM215 0h-69v230h-50v-230h-69v714q0 91 93 91q41 0 68 -22t27 -69v-714zM146 278v456q0 27 -25 27t-25 -27v-456h50z" />
    <glyph glyph-name="Adieresis" unicode="&#xc4;" 
d="M223 875q0 -10 -11 -20t-28 -10q-16 0 -27 9.5t-11 20.5t11 21.5t27 10.5t27.5 -10.5t11.5 -21.5zM96 875q0 -10 -11 -20t-28 -10q-16 0 -27 9.5t-11 20.5t11 21.5t27 10.5t27.5 -10.5t11.5 -21.5zM215 0h-69v230h-50v-230h-69v714q0 91 93 91q41 0 68 -22t27 -69v-714z
M146 278v456q0 27 -25 27t-25 -27v-456h50z" />
    <glyph glyph-name="Aring" unicode="&#xc5;" 
d="M212 932q0 -43 -22 -61.5t-68 -18.5q-44 0 -67.5 20.5t-23.5 55.5v10q0 42 22 60.5t68 18.5q91 0 91 -76v-9zM215 0h-69v230h-50v-230h-69v714q0 91 93 91q41 0 68 -22t27 -69v-714zM147 921v27q0 13 -7 21.5t-18 8.5q-12 0 -18.5 -8.5t-6.5 -21.5v-27q0 -13 7 -21t18 -8
t18 8.5t7 20.5zM146 278v456q0 27 -25 27t-25 -27v-456h50z" />
    <glyph glyph-name="AE" unicode="&#xc6;" horiz-adv-x="276" 
d="M256 0h-110v228h-50v-228h-69v709q0 91 93 91h136v-49h-41v-37v-438h41v-48h-41v-179h41v-49zM146 276v480h-25q-25 0 -25 -27v-453h50z" />
    <glyph glyph-name="Ccedilla" unicode="&#xc7;" 
d="M215 90q0 -48 -27 -70t-68 -22q-93 0 -93 91v624q0 92 93 92q41 0 68 -21.5t27 -69.5v-319h-69v340q0 27 -25 27t-25 -27v-666q0 -27 24 -27q13 0 19.5 8.5t6.5 18.5v131h69v-110zM213 -76l-190 -36v47l190 36v-47z" />
    <glyph glyph-name="Egrave" unicode="&#xc8;" horiz-adv-x="157" 
d="M134 832l-106 42v56l106 -41v-57zM137 -2h-110v802h110v-49h-41v-475h41v-48h-41v-181h41v-49z" />
    <glyph glyph-name="Eacute" unicode="&#xc9;" horiz-adv-x="157" 
d="M134 874l-106 -42v57l106 41v-56zM137 -2h-110v802h110v-49h-41v-475h41v-48h-41v-181h41v-49z" />
    <glyph glyph-name="Ecircumflex" unicode="&#xca;" horiz-adv-x="157" 
d="M136 830l-56 33l-57 -33v64l57 33l56 -31v-66zM137 -2h-110v802h110v-49h-41v-475h41v-48h-41v-181h41v-49z" />
    <glyph glyph-name="Edieresis" unicode="&#xcb;" horiz-adv-x="157" 
d="M173 874q0 -11 -11.5 -20.5t-27.5 -9.5q-17 0 -27.5 9.5t-10.5 20.5t11 21t27 10t27.5 -10t11.5 -21zM66 874q0 -11 -11.5 -20.5t-27.5 -9.5q-17 0 -27.5 9.5t-10.5 20.5t11 21t27 10t27.5 -10t11.5 -21zM137 -2h-110v802h110v-49h-41v-475h41v-48h-41v-181h41v-49z" />
    <glyph glyph-name="Igrave" unicode="&#xcc;" horiz-adv-x="121" 
d="M96 838l-68 25v58l68 -26v-57zM96 0h-68v797h68v-797z" />
    <glyph glyph-name="Iacute" unicode="&#xcd;" horiz-adv-x="121" 
d="M96 859l-68 -24v57l68 25v-58zM96 0h-68v797h68v-797z" />
    <glyph glyph-name="Icircumflex" unicode="&#xce;" horiz-adv-x="121" 
d="M96 834l-35 18l-33 -18v54l33 18l35 -18v-54zM96 0h-68v797h68v-797z" />
    <glyph glyph-name="Idieresis" unicode="&#xcf;" horiz-adv-x="121" 
d="M153 874q0 -11 -11.5 -20.5t-27.5 -9.5q-17 0 -27.5 9.5t-10.5 20.5t11 21t27 10t27.5 -10t11.5 -21zM46 874q0 -11 -11.5 -20.5t-27.5 -9.5q-17 0 -27.5 9.5t-10.5 20.5t11 21t27 10t27.5 -10t11.5 -21zM96 0h-68v798h68v-798z" />
    <glyph glyph-name="Eth" unicode="&#xd0;" 
d="M215 93q0 -53 -24 -73t-77 -20h-87v218h-24v51h24v533h87q50 0 75.5 -20t25.5 -67v-622zM146 77v651q0 13 -8 21.5t-22 8.5h-20v-489h25v-51h-25v-171h20q13 0 21.5 8.5t8.5 21.5z" />
    <glyph glyph-name="Ntilde" unicode="&#xd1;" 
d="M215 908q0 -61 -61 -61q-25 0 -38 8.5t-17.5 17t-10.5 8.5t-6 -5v-27h-58v25q0 61 62 61q18 0 31 -6t17.5 -13t9 -13t8.5 -6q6 0 6 6v29h57v-24zM215 -6h-69v740q0 27 -25 27t-25 -27v-740h-69v719q0 92 93 92q41 0 68 -22t27 -69v-720z" />
    <glyph glyph-name="Ograve" unicode="&#xd2;" 
d="M213 846l-185 47v51l185 -46v-52zM215 86q0 -49 -27 -70.5t-68 -21.5q-93 0 -93 92v627q0 92 93 92q41 0 68 -22t27 -69v-628zM146 65v669q0 27 -25 27t-25 -27v-669q0 -27 24 -27q13 0 19.5 8.5t6.5 18.5z" />
    <glyph glyph-name="Oacute" unicode="&#xd3;" 
d="M213 877l-185 -47v52l185 46v-51zM215 86q0 -49 -27 -70.5t-68 -21.5q-93 0 -93 92v627q0 92 93 92q41 0 68 -22t27 -69v-628zM146 65v669q0 27 -25 27t-25 -27v-669q0 -27 24 -27q13 0 19.5 8.5t6.5 18.5z" />
    <glyph glyph-name="Ocircumflex" unicode="&#xd4;" 
d="M216 829l-96 47l-97 -47v59l97 48l96 -47v-60zM215 86q0 -49 -27 -70.5t-68 -21.5q-93 0 -93 92v627q0 92 93 92q41 0 68 -22t27 -69v-628zM146 65v669q0 27 -25 27t-25 -27v-669q0 -27 24 -27q13 0 19.5 8.5t6.5 18.5z" />
    <glyph glyph-name="Otilde" unicode="&#xd5;" 
d="M215 908q0 -61 -61 -61q-25 0 -38 8.5t-17.5 17t-10.5 8.5t-6 -5v-27h-58v25q0 61 62 61q18 0 31 -6t17.5 -13t9 -13t8.5 -6q6 0 6 6v29h57v-24zM215 86q0 -49 -27 -70.5t-68 -21.5q-93 0 -93 92v627q0 92 93 92q41 0 68 -22t27 -69v-628zM146 65v669q0 27 -25 27
t-25 -27v-669q0 -27 24 -27q13 0 19.5 8.5t6.5 18.5z" />
    <glyph glyph-name="Odieresis" unicode="&#xd6;" 
d="M225 876q0 -11 -11.5 -21t-27.5 -10q-17 0 -27.5 10t-10.5 21t11 21t27 10t27.5 -10t11.5 -21zM98 876q0 -11 -11.5 -21t-27.5 -10q-17 0 -27.5 10t-10.5 21t11 21t27 10t27.5 -10t11.5 -21zM215 86q0 -49 -27 -70.5t-68 -21.5q-93 0 -93 92v627q0 92 93 92q41 0 68 -22
t27 -69v-628zM146 65v669q0 27 -25 27t-25 -27v-669q0 -27 24 -27q13 0 19.5 8.5t6.5 18.5z" />
    <glyph glyph-name="multiply" unicode="&#xd7;" horiz-adv-x="235" 
d="M210 1h-64v206q0 11 -6.5 19.5t-17.5 8.5q-10 0 -18 -7.5t-8 -20.5v-206h-65v204q0 58 40 70q-40 9 -40 63v366h65v-394q0 -31 25 -31q11 0 18 8.5t7 22.5v394h64v-366q0 -54 -40 -63q40 -12 40 -73v-201z" />
    <glyph glyph-name="Oslash" unicode="&#xd8;" 
d="M215 89q0 -46 -25 -69t-69 -23l-14 -101h-59l34 108q-55 20 -55 85v621q0 92 91 92l15 99h61l-30 -106q51 -27 51 -84v-622zM146 67v665q0 27 -25 27t-25 -27v-665q0 -27 24 -27q13 0 19.5 8.5t6.5 18.5z" />
    <glyph glyph-name="Ugrave" unicode="&#xd9;" 
d="M213 837l-185 47v51l185 -46v-52zM215 86q0 -49 -27 -70.5t-68 -21.5q-93 0 -93 92v716h69v-737q0 -27 24 -27q13 0 19.5 8.5t6.5 18.5v737h69v-716z" />
    <glyph glyph-name="Uacute" unicode="&#xda;" 
d="M213 885l-185 -48v53l185 46v-51zM215 86q0 -49 -27 -70.5t-68 -21.5q-93 0 -93 92v716h69v-737q0 -27 24 -27q13 0 19.5 8.5t6.5 18.5v737h69v-716z" />
    <glyph glyph-name="Ucircumflex" unicode="&#xdb;" 
d="M216 838l-96 47l-97 -47v59l97 48l96 -47v-60zM215 86q0 -49 -27 -70.5t-68 -21.5q-93 0 -93 92v716h69v-737q0 -27 24 -27q13 0 19.5 8.5t6.5 18.5v737h69v-716z" />
    <glyph glyph-name="Udieresis" unicode="&#xdc;" 
d="M225 876q0 -11 -11.5 -21t-27.5 -10q-17 0 -27.5 10t-10.5 21t11 21t27 10t27.5 -10t11.5 -21zM98 876q0 -11 -11.5 -21t-27.5 -10q-17 0 -27.5 10t-10.5 21t11 21t27 10t27.5 -10t11.5 -21zM215 86q0 -49 -27 -70.5t-68 -21.5q-93 0 -93 92v716h69v-737q0 -27 24 -27
q13 0 19.5 8.5t6.5 18.5v737h69v-716z" />
    <glyph glyph-name="Yacute" unicode="&#xdd;" 
d="M213 879l-185 -47v52l185 46v-51zM215 297q0 -25 -15 -44t-45 -23v-230h-68v229q-60 18 -60 69v504h69v-497q0 -11 6.5 -20t18.5 -9q25 0 25 29v497h69v-505z" />
    <glyph glyph-name="Thorn" unicode="&#xde;" horiz-adv-x="235" 
d="M215 326q0 -53 -21.5 -74.5t-65.5 -21.5h-32v-230h-69v799h69v-96h18q54 0 77.5 -19.5t23.5 -72.5v-285zM146 311v319q0 13 -8 21.5t-22 8.5h-20v-382h16q14 0 24 8t10 25z" />
    <glyph glyph-name="germandbls" unicode="&#xdf;" horiz-adv-x="343" 
d="M328 80q0 -46 -22.5 -66t-67.5 -20q-90 0 -90 82l-1 89h66v-98q0 -26 24 -26q12 0 19 7.5t7 18.5l-1 133q0 16 -6.5 24t-22.5 14l-48 19q-38 14 -38 65v409q0 8 -6.5 18t-18.5 10q-26 0 -26 -28v-731h-65v231h-26v49h26v441q0 46 22.5 65.5t67.5 19.5q43 0 67.5 -21.5
t24.5 -60.5v-389q0 -16 7 -22.5t27 -15.5l36 -17q45 -20 45 -59v-141z" />
    <glyph glyph-name="agrave" unicode="&#xe0;" horiz-adv-x="236" 
d="M213 743l-185 47v51l185 -46v-52zM211 0h-61v28q-1 -3 -4 -8.5t-18 -14t-37 -8.5q-32 0 -46 18.5t-14 57.5v133q0 40 15 57t53 17h47v355q0 11 -7 18.5t-18 7.5q-25 0 -25 -28v-285h-65v276q0 46 22.5 66t67.5 20q43 0 66.5 -21t23.5 -61v-628zM146 74v158h-26
q-24 0 -24 -31v-128q0 -26 25 -26t25 27z" />
    <glyph glyph-name="aacute" unicode="&#xe1;" horiz-adv-x="236" 
d="M213 790l-185 -47v52l185 46v-51zM211 0h-61v28q-1 -3 -4 -8.5t-18 -14t-37 -8.5q-32 0 -46 18.5t-14 57.5v133q0 40 15 57t53 17h47v355q0 11 -7 18.5t-18 7.5q-25 0 -25 -28v-285h-65v276q0 46 22.5 66t67.5 20q43 0 66.5 -21t23.5 -61v-628zM146 74v158h-26
q-24 0 -24 -31v-128q0 -26 25 -26t25 27z" />
    <glyph glyph-name="acircumflex" unicode="&#xe2;" horiz-adv-x="236" 
d="M216 739l-96 48l-97 -48v59l97 48l96 -47v-60zM211 0h-61v28q-1 -3 -4 -8.5t-18 -14t-37 -8.5q-32 0 -46 18.5t-14 57.5v133q0 40 15 57t53 17h47v355q0 11 -7 18.5t-18 7.5q-25 0 -25 -28v-285h-65v276q0 46 22.5 66t67.5 20q43 0 66.5 -21t23.5 -61v-628zM146 74v158
h-26q-24 0 -24 -31v-128q0 -26 25 -26t25 27z" />
    <glyph glyph-name="atilde" unicode="&#xe3;" horiz-adv-x="236" 
d="M215 816q0 -61 -61 -61q-25 0 -38 8.5t-17.5 17t-10.5 8.5t-6 -5v-27h-58v25q0 61 62 61q18 0 31 -6t17.5 -13t9 -13t8.5 -6q6 0 6 6v29h57v-24zM211 0h-61v28q-1 -3 -4 -8.5t-18 -14t-37 -8.5q-32 0 -46 18.5t-14 57.5v133q0 40 15 57t53 17h47v355q0 11 -7 18.5
t-18 7.5q-25 0 -25 -28v-285h-65v276q0 46 22.5 66t67.5 20q43 0 66.5 -21t23.5 -61v-628zM146 74v158h-26q-24 0 -24 -31v-128q0 -26 25 -26t25 27z" />
    <glyph glyph-name="adieresis" unicode="&#xe4;" horiz-adv-x="236" 
d="M225 792q0 -11 -11.5 -21t-27.5 -10q-17 0 -27.5 10t-10.5 21t11 21t27 10t27.5 -10t11.5 -21zM98 792q0 -11 -11.5 -21t-27.5 -10q-17 0 -27.5 10t-10.5 21t11 21t27 10t27.5 -10t11.5 -21zM211 0h-61v28q-1 -3 -4 -8.5t-18 -14t-37 -8.5q-32 0 -46 18.5t-14 57.5v133
q0 40 15 57t53 17h47v355q0 11 -7 18.5t-18 7.5q-25 0 -25 -28v-285h-65v276q0 46 22.5 66t67.5 20q43 0 66.5 -21t23.5 -61v-628zM146 74v158h-26q-24 0 -24 -31v-128q0 -26 25 -26t25 27z" />
    <glyph glyph-name="aring" unicode="&#xe5;" horiz-adv-x="236" 
d="M212 829q0 -43 -22 -61.5t-68 -18.5q-44 0 -67.5 20.5t-23.5 55.5v10q0 42 22 60.5t68 18.5q91 0 91 -76v-9zM211 0h-61v28q-1 -3 -4 -8.5t-18 -14t-37 -8.5q-32 0 -46 18.5t-14 57.5v133q0 40 15 57t53 17h47v355q0 11 -7 18.5t-18 7.5q-25 0 -25 -28v-285h-65v276
q0 46 22.5 66t67.5 20q43 0 66.5 -21t23.5 -61v-628zM147 818v27q0 13 -7 21.5t-18 8.5q-12 0 -18.5 -8.5t-6.5 -21.5v-27q0 -13 7 -21t18 -8t18 8.5t7 20.5zM146 74v158h-26q-24 0 -24 -31v-128q0 -26 25 -26t25 27z" />
    <glyph glyph-name="ae" unicode="&#xe6;" horiz-adv-x="352" 
d="M327 79q0 -46 -22.5 -64t-68.5 -18q-31 0 -56 28q-27 -28 -59 -28q-44 0 -67 20.5t-23 55.5v133q0 40 15 57t53 17h47v339v11q0 11 -7 18.5t-18 7.5q-25 0 -25 -28v-285h-65v276q0 47 22 66.5t68 19.5q31 0 58 -28q23 28 57 28q42 0 66.5 -22.5t24.5 -63.5v-387h-116
v-163q0 -26 24 -26q12 0 19 7.5t7 18.5v96h66v-86zM261 281v349q0 12 -6.5 20t-18.5 8q-25 0 -25 -28v-7v-342h50zM146 74v2v156h-26q-24 0 -24 -31v-128q0 -26 25 -26q8 0 14.5 6.5t8.5 12.5t2 8z" />
    <glyph glyph-name="ccedilla" unicode="&#xe7;" horiz-adv-x="237" 
d="M212 381h-66v254q0 12 -6.5 20t-18.5 8q-25 0 -25 -28v-561q0 -26 24 -26q12 0 19 7.5t7 18.5v126h66l-1 -116q0 -46 -22.5 -65.5t-67.5 -19.5q-90 0 -90 82v544q0 46 22.5 65.5t67.5 19.5q43 0 67 -21.5t24 -60.5v-247zM213 -81l-190 -36v47l190 36v-47z" />
    <glyph glyph-name="egrave" unicode="&#xe8;" horiz-adv-x="237" 
d="M213 744l-185 48v51l185 -47v-52zM212 79q0 -46 -22.5 -65.5t-68.5 -19.5q-43 0 -66.5 21t-23.5 61v548q0 46 22.5 66t67.5 20q42 0 66.5 -22.5t24.5 -63.5v-392h-116v-163q0 -26 24 -26q12 0 19 7.5t7 18.5v97h66v-87zM146 281v354q0 12 -6.5 20t-18.5 8q-25 0 -25 -28
v-354h50z" />
    <glyph glyph-name="eacute" unicode="&#xe9;" horiz-adv-x="237" 
d="M213 790l-185 -47v52l185 46v-51zM212 79q0 -46 -22.5 -65.5t-68.5 -19.5q-43 0 -66.5 21t-23.5 61v548q0 46 22.5 66t67.5 20q42 0 66.5 -22.5t24.5 -63.5v-392h-116v-163q0 -26 24 -26q12 0 19 7.5t7 18.5v97h66v-87zM146 281v354q0 12 -6.5 20t-18.5 8q-25 0 -25 -28
v-354h50z" />
    <glyph glyph-name="ecircumflex" unicode="&#xea;" horiz-adv-x="237" 
d="M216 737l-96 47l-97 -48v60l97 47l96 -46v-60zM212 79q0 -46 -22.5 -65.5t-68.5 -19.5q-43 0 -66.5 21t-23.5 61v548q0 46 22.5 66t67.5 20q42 0 66.5 -22.5t24.5 -63.5v-392h-116v-163q0 -26 24 -26q12 0 19 7.5t7 18.5v97h66v-87zM146 281v354q0 12 -6.5 20t-18.5 8
q-25 0 -25 -28v-354h50z" />
    <glyph glyph-name="edieresis" unicode="&#xeb;" horiz-adv-x="237" 
d="M225 780q0 -11 -11.5 -20.5t-27.5 -9.5q-17 0 -27.5 9.5t-10.5 20.5t11 21t27 10t27.5 -10t11.5 -21zM98 780q0 -11 -11.5 -20.5t-27.5 -9.5q-17 0 -27.5 9.5t-10.5 20.5t11 21t27 10t27.5 -10t11.5 -21zM212 79q0 -46 -22.5 -65.5t-68.5 -19.5q-43 0 -66.5 21t-23.5 61
v548q0 46 22.5 66t67.5 20q42 0 66.5 -22.5t24.5 -63.5v-392h-116v-163q0 -26 24 -26q12 0 19 7.5t7 18.5v97h66v-87zM146 281v354q0 12 -6.5 20t-18.5 8q-25 0 -25 -28v-354h50z" />
    <glyph glyph-name="igrave" unicode="&#xec;" horiz-adv-x="116" 
d="M95 742l-68 25v67l68 -26v-66zM95 0h-66v706h66v-706z" />
    <glyph glyph-name="iacute" unicode="&#xed;" horiz-adv-x="116" 
d="M96 767l-68 -25v66l68 26v-67zM95 0h-66v706h66v-706z" />
    <glyph glyph-name="icircumflex" unicode="&#xee;" horiz-adv-x="116" 
d="M96 750l-35 18l-33 -18v59l33 18l35 -18v-59zM95 0h-66v704h66v-704z" />
    <glyph glyph-name="idieresis" unicode="&#xef;" horiz-adv-x="116" 
d="M153 782q0 -10 -11.5 -19.5t-27.5 -9.5q-17 0 -27.5 9.5t-10.5 19.5q0 11 11 20.5t27 9.5t27.5 -9.5t11.5 -20.5zM46 782q0 -10 -11.5 -19.5t-27.5 -9.5q-17 0 -27.5 9.5t-10.5 19.5q0 11 11 20.5t27 9.5t27.5 -9.5t11.5 -20.5zM95 0h-66v704h66v-704z" />
    <glyph glyph-name="eth" unicode="&#xf0;" horiz-adv-x="236" 
d="M234 727h-23v-727h-61v28q-1 -3 -4 -8.5t-18 -14t-37 -8.5q-32 0 -46 18.5t-14 57.5v559q0 76 57 76q22 0 36.5 -8t18.5 -16l4 -7v50h-24v51h24v24h64v-24h23v-51zM147 77v547q0 32 -25 32q-26 0 -26 -31v-548q0 -30 25 -30q26 0 26 30z" />
    <glyph glyph-name="ntilde" unicode="&#xf1;" horiz-adv-x="236" 
d="M215 816q0 -61 -61 -61q-25 0 -38 8.5t-17.5 17t-10.5 8.5t-6 -5v-27h-58v25q0 61 62 61q18 0 31 -6t17.5 -13t9 -13t8.5 -6q6 0 6 6v29h57v-24zM211 0h-65v625q0 31 -26 31q-24 0 -24 -31v-625h-66v704h66l-1 -27q1 3 4 8.5t18 14t37 8.5q57 0 57 -76v-632z" />
    <glyph glyph-name="ograve" unicode="&#xf2;" horiz-adv-x="237" 
d="M213 743l-185 47v51l185 -46v-52zM212 628l-1 -548q0 -46 -22.5 -66t-67.5 -20q-43 0 -66.5 21t-23.5 61v548q0 46 22.5 66t67.5 20q43 0 67 -21.5t24 -60.5zM146 69v566q0 28 -25 28t-25 -28v-566q0 -26 24 -26q12 0 19 7.5t7 18.5z" />
    <glyph glyph-name="oacute" unicode="&#xf3;" horiz-adv-x="237" 
d="M213 790l-185 -47v52l185 46v-51zM212 628l-1 -548q0 -46 -22.5 -66t-67.5 -20q-43 0 -66.5 21t-23.5 61v548q0 46 22.5 66t67.5 20q43 0 67 -21.5t24 -60.5zM146 69v566q0 28 -25 28t-25 -28v-566q0 -26 24 -26q12 0 19 7.5t7 18.5z" />
    <glyph glyph-name="ocircumflex" unicode="&#xf4;" horiz-adv-x="237" 
d="M216 737l-96 47l-97 -48v60l97 47l96 -46v-60zM212 628l-1 -548q0 -46 -22.5 -66t-67.5 -20q-43 0 -66.5 21t-23.5 61v548q0 46 22.5 66t67.5 20q43 0 67 -21.5t24 -60.5zM146 69v566q0 28 -25 28t-25 -28v-566q0 -26 24 -26q12 0 19 7.5t7 18.5z" />
    <glyph glyph-name="otilde" unicode="&#xf5;" horiz-adv-x="237" 
d="M215 816q0 -61 -61 -61q-25 0 -38 8.5t-17.5 17t-10.5 8.5t-6 -5v-27h-58v25q0 61 62 61q18 0 31 -6t17.5 -13t9 -13t8.5 -6q6 0 6 6v29h57v-24zM212 628l-1 -548q0 -46 -22.5 -66t-67.5 -20q-43 0 -66.5 21t-23.5 61v548q0 46 22.5 66t67.5 20q43 0 67 -21.5t24 -60.5z
M146 69v566q0 28 -25 28t-25 -28v-566q0 -26 24 -26q12 0 19 7.5t7 18.5z" />
    <glyph glyph-name="odieresis" unicode="&#xf6;" horiz-adv-x="237" 
d="M225 780q0 -11 -11.5 -20.5t-27.5 -9.5q-17 0 -27.5 9.5t-10.5 20.5t11 21t27 10t27.5 -10t11.5 -21zM98 780q0 -11 -11.5 -20.5t-27.5 -9.5q-17 0 -27.5 9.5t-10.5 20.5t11 21t27 10t27.5 -10t11.5 -21zM212 628l-1 -548q0 -46 -22.5 -66t-67.5 -20q-43 0 -66.5 21
t-23.5 61v548q0 46 22.5 66t67.5 20q43 0 67 -21.5t24 -60.5zM146 69v566q0 28 -25 28t-25 -28v-566q0 -26 24 -26q12 0 19 7.5t7 18.5z" />
    <glyph glyph-name="oslash" unicode="&#xf8;" horiz-adv-x="236" 
d="M211 83q0 -44 -24 -66.5t-65 -22.5l-15 -99h-61l33 105q-25 13 -36.5 31.5t-11.5 50.5v534q0 88 88 88l15 96h61l-33 -103q49 -26 49 -81v-533zM146 72v555q0 12 -6.5 20t-18.5 8q-25 0 -25 -28v-555q0 -26 24 -26q12 0 19 7.5t7 18.5z" />
    <glyph glyph-name="ugrave" unicode="&#xf9;" horiz-adv-x="236" 
d="M213 744l-185 48v51l185 -47v-52zM212 0h-62v28q-1 -3 -4 -8.5t-18 -14t-37 -8.5q-60 0 -60 80v627h65v-626q0 -31 25 -31q26 0 26 30v627h65v-704z" />
    <glyph glyph-name="uacute" unicode="&#xfa;" horiz-adv-x="236" 
d="M213 790l-185 -47v52l185 46v-51zM212 0h-62v28q-1 -3 -4 -8.5t-18 -14t-37 -8.5q-60 0 -60 80v627h65v-626q0 -31 25 -31q26 0 26 30v627h65v-704z" />
    <glyph glyph-name="ucircumflex" unicode="&#xfb;" horiz-adv-x="236" 
d="M216 737l-96 47l-97 -48v60l97 47l96 -46v-60zM212 0h-62v28q-1 -3 -4 -8.5t-18 -14t-37 -8.5q-60 0 -60 80v627h65v-626q0 -31 25 -31q26 0 26 30v627h65v-704z" />
    <glyph glyph-name="udieresis" unicode="&#xfc;" horiz-adv-x="236" 
d="M225 780q0 -11 -11.5 -20.5t-27.5 -9.5q-17 0 -27.5 9.5t-10.5 20.5t11 21t27 10t27.5 -10t11.5 -21zM98 780q0 -11 -11.5 -20.5t-27.5 -9.5q-17 0 -27.5 9.5t-10.5 20.5t11 21t27 10t27.5 -10t11.5 -21zM212 0h-62v28q-1 -3 -4 -8.5t-18 -14t-37 -8.5q-60 0 -60 80v627
h65v-626q0 -31 25 -31q26 0 26 30v627h65v-704z" />
    <glyph glyph-name="yacute" unicode="&#xfd;" horiz-adv-x="236" 
d="M213 790l-185 -47v52l185 46v-51zM211 -57q0 -45 -22.5 -64.5t-67.5 -19.5q-90 0 -90 79v12h65v-12q0 -29 25 -29q27 0 29 29v92q-1 -4 -4 -9t-18 -14t-37 -9q-32 0 -46 18.5t-14 58.5v629h65v-624q0 -32 25 -32q26 0 26 30l-1 626h65v-761z" />
    <glyph glyph-name="thorn" unicode="&#xfe;" horiz-adv-x="237" 
d="M211 74q0 -76 -57 -76q-22 0 -36.5 8t-18.5 16l-4 7l1 -162h-65v933h64v-123q1 3 4 8.5t18 14t37 8.5q57 0 57 -76v-558zM146 81v544q0 31 -26 31q-25 0 -25 -31v-543q0 -31 25 -31q26 0 26 30z" />
    <glyph glyph-name="ydieresis" unicode="&#xff;" horiz-adv-x="236" 
d="M225 792q0 -11 -11.5 -21t-27.5 -10q-17 0 -27.5 10t-10.5 21t11 21t27 10t27.5 -10t11.5 -21zM98 792q0 -11 -11.5 -21t-27.5 -10q-17 0 -27.5 10t-10.5 21t11 21t27 10t27.5 -10t11.5 -21zM211 -57q0 -45 -22.5 -64.5t-67.5 -19.5q-90 0 -90 79v12h65v-12q0 -29 25 -29
q27 0 29 29v92q-1 -4 -4 -9t-18 -14t-37 -9q-32 0 -46 18.5t-14 58.5v629h65v-624q0 -32 25 -32q26 0 26 30l-1 626h65v-761z" />
    <glyph glyph-name="dotlessi" unicode="&#x131;" horiz-adv-x="116" 
d="M95 0h-66v704h66v-704z" />
    <glyph glyph-name="Lslash" unicode="&#x141;" horiz-adv-x="142" 
d="M127 0h-100v218h-22v51h22v533h69v-533h21v-51h-21v-171h31v-47z" />
    <glyph glyph-name="lslash" unicode="&#x142;" horiz-adv-x="121" 
d="M116 218h-20v-218h-66v218h-20v51h20v533h66v-533h20v-51z" />
    <glyph glyph-name="OE" unicode="&#x152;" horiz-adv-x="276" 
d="M256 -2h-136q-93 0 -93 91v619q0 92 93 92h136v-49h-41v-37v-438h41v-48h-41v-142v-39h41v-49zM146 42v714h-25q-25 0 -25 -27v-660q0 -27 24 -27h26z" />
    <glyph glyph-name="oe" unicode="&#x153;" horiz-adv-x="352" 
d="M327 79q0 -46 -22.5 -65.5t-68.5 -19.5q-32 0 -56 28q-27 -28 -59 -28q-43 0 -66.5 21t-23.5 61v543q0 46 22.5 66t67.5 20q31 0 58 -28q23 28 57 28q42 0 66.5 -22.5t24.5 -63.5v-387h-116v-163q0 -26 24 -26q12 0 19 7.5t7 18.5v95h66v-85zM261 281v349q0 12 -6.5 20
t-18.5 8q-25 0 -25 -28v-349h50zM146 69v561q0 12 -6.5 20t-18.5 8q-25 0 -25 -28v-561q0 -26 24 -26q12 0 19 7.5t7 18.5z" />
    <glyph glyph-name="Scaron" unicode="&#x160;" horiz-adv-x="228" 
d="M216 894l-95 -48l-98 48v59l98 -47l95 47v-59zM208 87q0 -49 -27 -71t-68 -22q-93 0 -93 92v98h69v-114q0 -32 25 -32t25 32v114q0 18 -3 27q-5 15 -25 23l-52 24q-39 17 -39 65v390q0 92 93 92q41 0 68 -22t27 -69v-367h-69v386q0 28 -25 28t-25 -27v-392q0 -19 8 -28.5
t28 -18.5l40 -17q19 -8 31 -26.5t12 -39.5v-125z" />
    <glyph glyph-name="scaron" unicode="&#x161;" horiz-adv-x="232" 
d="M214 791l-95 -48l-98 48v59l98 -47l95 47v-59zM209 628l-1 -278h-65v283q0 12 -6.5 20t-18.5 8q-25 0 -25 -28v-320q0 -10 1 -16t6.5 -10.5t8 -5.5t15.5 -6l45 -18q38 -16 38 -63l1 -114q1 -46 -22 -66t-68 -20q-43 0 -67 21.5t-24 60.5v89h66v-98q0 -26 24 -26
q12 0 19 7.5t7 18.5v112q0 16 -5 24t-20 14l-53 19q-38 14 -38 65v324q0 47 22.5 66t68.5 19q43 0 67 -21.5t24 -60.5z" />
    <glyph glyph-name="Ydieresis" unicode="&#x178;" 
d="M225 876q0 -11 -11.5 -21t-27.5 -10q-17 0 -27.5 10t-10.5 21t11 21t27 10t27.5 -10t11.5 -21zM98 876q0 -11 -11.5 -21t-27.5 -10q-17 0 -27.5 10t-10.5 21t11 21t27 10t27.5 -10t11.5 -21zM215 297q0 -25 -15 -44t-45 -23v-230h-68v229q-60 18 -60 69v504h69v-497
q0 -11 6.5 -20t18.5 -9q25 0 25 29v497h69v-505z" />
    <glyph glyph-name="Zcaron" unicode="&#x17d;" horiz-adv-x="204" 
d="M205 894l-95 -48l-98 48v59l98 -47l95 47v-59zM184 0h-164v223q0 46 37 61l29 11q18 7 23 13.5t5 23.5v421h-94v49h164v-483q0 -51 -33 -64l-40 -15q-15 -5 -21.5 -14t-6.5 -31v-147h101v-48z" />
    <glyph glyph-name="zcaron" unicode="&#x17e;" horiz-adv-x="189" 
d="M192 791l-95 -48l-98 48v59l98 -47l95 47v-59zM169 0h-151v192q0 34 10.5 49.5t35.5 28.5l15 9q8 4 11.5 6t8.5 10.5t5 19.5v340h-86v49h151v-375q0 -39 -8.5 -55.5t-28.5 -27.5l-22 -12q-11 -6 -15.5 -10t-8 -12.5t-3.5 -22.5v-142h86v-47z" />
    <glyph glyph-name="florin" unicode="&#x192;" horiz-adv-x="228" 
d="M213 380h-66v352q0 8 -6.5 18t-18.5 10q-26 0 -26 -28v-450h95v-48h-95v-366h-65v366h-26v48h26v439q0 46 22.5 65.5t67.5 19.5q43 0 67.5 -21.5t24.5 -60.5v-344z" />
    <glyph glyph-name="circumflex" unicode="&#x2c6;" horiz-adv-x="241" 
d="M216 751l-96 47l-97 -47v59l97 48l96 -47v-60z" />
    <glyph glyph-name="caron" unicode="&#x2c7;" horiz-adv-x="241" 
d="M216 791l-95 -48l-98 48v59l98 -47l95 47v-59z" />
    <glyph glyph-name="breve" unicode="&#x2d8;" horiz-adv-x="237" 
d="M212 834q0 -47 -22.5 -67t-67.5 -20q-44 0 -68 22t-23 62v13h67l-1 -20q0 -29 25 -29t25 29v20h65v-10z" />
    <glyph glyph-name="dotaccent" unicode="&#x2d9;" horiz-adv-x="116" 
d="M113 792q0 -15 -15 -29t-36 -14q-22 0 -35.5 13.5t-13.5 29.5t14 30t35 14t36 -14.5t15 -29.5z" />
    <glyph glyph-name="ring" unicode="&#x2da;" horiz-adv-x="237" 
d="M212 827q0 -43 -22 -61.5t-68 -18.5q-44 0 -67.5 20.5t-23.5 55.5v10q0 42 22 60.5t68 18.5q91 0 91 -76v-9zM147 816v27q0 13 -7 21.5t-18 8.5q-12 0 -18.5 -8.5t-6.5 -21.5v-27q0 -13 7 -21t18 -8t18 8.5t7 20.5z" />
    <glyph glyph-name="ogonek" unicode="&#x2db;" horiz-adv-x="237" 
d="M212 -132h-90q-43 0 -67.5 24t-23.5 69l1 99h66l-1 -106q0 -14 6.5 -23.5t18.5 -9.5h90v-53z" />
    <glyph glyph-name="tilde" unicode="&#x2dc;" horiz-adv-x="237" 
d="M215 811q0 -61 -61 -61q-25 0 -38 8.5t-17.5 17t-10.5 8.5t-6 -5v-27h-58v25q0 61 62 61q18 0 31 -6t17.5 -13t9 -13t8.5 -6q6 0 6 6v29h57v-24z" />
    <glyph glyph-name="hungarumlaut" unicode="&#x2dd;" horiz-adv-x="164" 
d="M157 864l-28 -115h-24v115h52zM75 864l-28 -115h-24v115h52z" />
    <glyph glyph-name="pi" unicode="&#x3c0;" horiz-adv-x="475" 
d="M450 93q0 -94 -91 -94h-241q-91 0 -91 95v612q0 94 91 94h241q91 0 91 -95v-612zM381 78v643q0 14 -9.5 22t-19.5 8h-226q-12 0 -21 -8.5t-9 -21.5v-643q0 -14 9.5 -22t19.5 -8h226q12 0 21 8.5t9 21.5zM334 389q0 -53 -21.5 -75t-65.5 -22h-32v-193h-69v600h87
q54 0 77.5 -19.5t23.5 -72.5v-218zM265 373v252q0 31 -30 31h-20v-315h16q14 0 24 8t10 24z" />
    <glyph glyph-name="endash" unicode="&#x2013;" horiz-adv-x="327" 
d="M303 218h-288v51h288v-51z" />
    <glyph glyph-name="emdash" unicode="&#x2014;" horiz-adv-x="427" 
d="M403 218h-388v51h388v-51z" />
    <glyph glyph-name="quoteleft" unicode="&#x2018;" horiz-adv-x="84" 
d="M64 546h-23l-32 254h55v-254z" />
    <glyph glyph-name="quoteright" unicode="&#x2019;" horiz-adv-x="84" 
d="M78 800l-32 -254h-23v254h55z" />
    <glyph glyph-name="quotesinglbase" unicode="&#x201a;" horiz-adv-x="80" 
d="M77 187l-31 -254h-23v254h54z" />
    <glyph glyph-name="quotedblleft" unicode="&#x201c;" horiz-adv-x="164" 
d="M144 546h-23l-30 254h53v-254zM63 546h-23l-31 254h54v-254z" />
    <glyph glyph-name="quotedblright" unicode="&#x201d;" horiz-adv-x="164" 
d="M158 800l-30 -254h-23v254h53zM77 800l-31 -254h-23v254h54z" />
    <glyph glyph-name="quotedblbase" unicode="&#x201e;" horiz-adv-x="161" 
d="M158 187l-30 -254h-23v254h53zM77 187l-31 -254h-23v254h54z" />
    <glyph glyph-name="dagger" unicode="&#x2020;" horiz-adv-x="227" 
d="M203 747h-72v-815h-46v815h-71v51h71v75h46v-75h72v-51z" />
    <glyph glyph-name="daggerdbl" unicode="&#x2021;" horiz-adv-x="227" 
d="M203 229h-72v-297h-46v297h-71v51h71v467h-71v51h71v75h46v-75h72v-51h-72v-467h72v-51z" />
    <glyph glyph-name="bullet" unicode="&#x2022;" 
d="M215 86q0 -49 -27 -70.5t-68 -21.5q-93 0 -93 92v627q0 92 93 92q41 0 68 -22t27 -69v-628z" />
    <glyph glyph-name="ellipsis" unicode="&#x2026;" horiz-adv-x="452" 
d="M437 36q0 -17 -14.5 -29.5t-39.5 -12.5q-24 0 -39 12.5t-15 29.5t15 30t39 13q25 0 39.5 -12.5t14.5 -30.5zM280 36q0 -17 -14.5 -29.5t-39.5 -12.5q-24 0 -39 12.5t-15 29.5t15 30t39 13q25 0 39.5 -12.5t14.5 -30.5zM123 36q0 -17 -14.5 -29.5t-39.5 -12.5
q-24 0 -39 12.5t-15 29.5t15 30t39 13q25 0 39.5 -12.5t14.5 -30.5z" />
    <glyph glyph-name="perthousand" unicode="&#x2030;" horiz-adv-x="782" 
d="M757 487l-1 -409q0 -46 -22.5 -65.5t-67.5 -19.5q-90 0 -90 82v409q0 46 22.5 65.5t67.5 19.5q43 0 67 -21t24 -61zM526 487l-1 -409q0 -46 -22.5 -65.5t-67.5 -19.5q-90 0 -90 82v409q0 46 22.5 65.5t67.5 19.5q43 0 67 -21t24 -61zM371 800l-144 -802h-50l146 802h48z
M201 723l-1 -408q0 -47 -22 -66t-68 -19q-90 0 -90 82v408q0 46 22.5 65.5t67.5 19.5q43 0 67 -21.5t24 -60.5zM691 68v427q0 11 -7 19.5t-18 8.5q-25 0 -25 -28v-427q0 -26 24 -26q12 0 19 7.5t7 18.5zM460 68v427q0 11 -7 19.5t-18 8.5q-25 0 -25 -28v-427q0 -26 24 -26
q12 0 19 7.5t7 18.5zM135 303v427q0 12 -6.5 20t-18.5 8q-25 0 -25 -28v-427q0 -25 24 -25q12 0 19 7t7 18z" />
    <glyph glyph-name="guilsinglleft" unicode="&#x2039;" horiz-adv-x="172" 
d="M155 417l-87 -154l87 -153h-61l-86 153l86 154h61z" />
    <glyph glyph-name="guilsinglright" unicode="&#x203a;" horiz-adv-x="170" 
d="M162 261l-88 -153h-57l86 153l-86 154h57z" />
    <glyph glyph-name="fraction" unicode="&#x2044;" horiz-adv-x="227" 
d="M214 800l-144 -802h-50l146 802h48z" />
    <glyph glyph-name="trademark" unicode="&#x2122;" horiz-adv-x="517" 
d="M492 135h-69v588q0 30 -25 30h-24v-618h-69v618h-26q-24 0 -24 -30v-588h-69v576q0 90 91 90h124q48 0 69.5 -22t21.5 -67v-577zM142 753h-30v-618h-69v618h-30v49h129v-49zM492 1h-479v51h479v-51z" />
    <glyph glyph-name="minus" unicode="&#x2212;" horiz-adv-x="227" 
d="M203 218h-188v51h188v-51z" />
    <glyph glyph-name="percent" horiz-adv-x="551" 
d="M526 487l-1 -409q0 -46 -22.5 -65.5t-67.5 -19.5q-90 0 -90 82v409q0 46 22.5 65.5t67.5 19.5q43 0 67 -21t24 -61zM371 800l-144 -802h-50l146 802h48zM201 723l-1 -408q0 -47 -22 -66t-68 -19q-90 0 -90 82v408q0 46 22.5 65.5t67.5 19.5q43 0 67 -21.5t24 -60.5z
M460 68v427q0 11 -7 19.5t-18 8.5q-25 0 -25 -28v-427q0 -26 24 -26q12 0 19 7.5t7 18.5zM135 303v427q0 12 -6.5 20t-18.5 8q-25 0 -25 -28v-427q0 -25 24 -25q12 0 19 7t7 18z" />
    <glyph glyph-name="apple" horiz-adv-x="615" 
d="M605 425h-37q3 -6 11 -6q3 0 9 4l11 -8q-13 -8 -20 -8q-11 0 -18.5 7t-7.5 17q0 9 7.5 16t18.5 7q26 0 26 -29zM546 420q-13 -13 -24 -13q-11 1 -18.5 7.5t-7.5 16.5q0 9 8 16t18 7q9 0 24 -12l-11 -10q-9 8 -13 8q-10 0 -10 -9q0 -10 10 -10q4 0 13 8zM487 466
q2 -7 -7 -9q-9 0 -9 7q-2 8 7 8q7 2 9 -6zM301 720q-1 -33 -24.5 -56.5t-56.5 -23.5q-34 0 -57 23.5t-22 56.5t24.5 56.5t56.5 23.5q34 0 57 -23.5t22 -56.5zM486 408h-15v45h15v-45zM463 446l-26 -41l-27 42l13 7l11 -18l3 -5l3 5q4 7 11 17zM406 425h-36q3 -6 10 -6
q2 0 10 4l11 -8q-13 -8 -21 -8q-11 0 -18.5 7t-7.5 17q0 9 8 16t18 7q26 0 26 -29zM345 408h-15v3q-4 -4 -12 -4q-10 0 -17 7t-7 17t7 16.5t17 6.5q8 0 12 -4v15h15v-57zM404 328q-22 -3 -35 -4.5t-24 -7.5t-15.5 -8t-9 -14.5t-5.5 -18t-4 -27.5t-5 -35q-23 -143 -34 -213
q-34 -1 -66 13t-53.5 34.5t-38 41t-24.5 35.5l-8 14q-39 76 -58.5 175.5t-7.5 114.5q1 2 4 4t13 5.5t22 -2.5q-12 -106 -6 -164l48 7q-5 26 -10.5 79t-5 108.5t11.5 67.5q2 2 5 3.5t13 4.5t21 -3q-25 -147 -22 -258l48 8q-4 36 3 166.5t24 147.5q2 2 5 3.5t13.5 4t21.5 -3.5
q-19 -77 -36 -180.5t-17 -135.5l43 6q12 115 23.5 186t17.5 85l6 14l5 5t14.5 6t23.5 -7q-30 -75 -50 -152t-25 -117l-5 -39q-11 -118 23 -123q19 -3 36 31q7 14 9 29q4 29 0 52t-8.5 41t-7 30t4.5 17.5t26 4.5q25 -1 57.5 -10t38.5 -21zM589 436q0 6 -10 6q-8 0 -11 -6h21z
M264 721q2 17 -9.5 29t-30.5 12h-30l-10 -83h30q19 0 33.5 12.5t16.5 29.5zM391 436q-3 6 -11 6q-7 0 -10 -6h21zM330 431q0 9 -10 9q-11 0 -11 -9q0 -10 11 -10q10 0 10 10zM242 721q-1 -9 -8.5 -15t-18.5 -6h-6l5 42h6q10 0 16.5 -6t5.5 -15z" />
    </font>
</defs>
</svg>
