<?xml version="1.0" standalone="no"?>
<!DOCTYPE svg PUBLIC "-//W3C//DTD SVG 1.1//EN" "http://www.w3.org/Graphics/SVG/1.1/DTD/svg11.dtd" >
<svg xmlns="http://www.w3.org/2000/svg" xmlns:xlink="http://www.w3.org/1999/xlink" version="1.1">
<metadata></metadata>
<defs>
<font id="pangrammedium" horiz-adv-x="1456" >
<font-face units-per-em="2048" ascent="1638" descent="-410" />
<missing-glyph horiz-adv-x="503" />
<glyph horiz-adv-x="0" />
<glyph horiz-adv-x="682" />
<glyph unicode=" "  horiz-adv-x="503" />
<glyph unicode="&#x09;" horiz-adv-x="503" />
<glyph unicode="&#xa0;" horiz-adv-x="503" />
<glyph unicode="!" horiz-adv-x="487" d="M150 94q0 48 32.5 81.5t81.5 33.5q47 0 81 -34t34 -81t-34 -80.5t-81 -33.5q-49 0 -81.5 33t-32.5 81zM156 1454h215l-13 -1044h-190z" />
<glyph unicode="&#x22;" horiz-adv-x="755" d="M225 1085v416h168v-416h-168zM508 1085v416h166v-416h-166z" />
<glyph unicode="#" horiz-adv-x="1595" d="M164 319v216h278l35 325h-252v213h275l41 381h207l-41 -381h331l41 381h209l-41 -381h226v-213h-250l-35 -325h223v-216h-246l-32 -319h-209l34 319h-331l-35 -319h-207l33 319h-254zM649 535h332l35 325h-332z" />
<glyph unicode="$" horiz-adv-x="1341" d="M223 422h213q6 -104 67.5 -164.5t153.5 -71.5v459l-12 6q-110 62 -177 108.5t-119 101t-73.5 114t-21.5 135.5q0 155 115 257t288 108v143h64v-145q167 -15 272 -133.5t111 -286.5h-213q-4 87 -50.5 144t-119.5 71v-424q86 -46 147 -83t119 -83.5t92.5 -93t55 -104.5 t20.5 -124q0 -169 -122.5 -270t-311.5 -106v-144h-64v146q-192 15 -310 140t-124 300zM467 1102q0 -78 44.5 -124.5t145.5 -100.5v395q-82 -6 -136 -53t-54 -117zM721 182q102 4 160.5 55t58.5 128q0 78 -53 131t-166 116v-430z" />
<glyph unicode="%" horiz-adv-x="2064" d="M205 1137q0 141 98.5 239.5t239.5 98.5t239.5 -98.5t98.5 -239.5t-98.5 -239.5t-239.5 -98.5t-239.5 98.5t-98.5 239.5zM360 1137q0 -77 53 -130t130 -53q76 0 129 53t53 130t-52.5 129.5t-129.5 52.5t-130 -53t-53 -129zM397 0l1098 1454h201l-1098 -1454h-201z M1225 317q0 141 98.5 239.5t239.5 98.5t239.5 -98.5t98.5 -239.5t-98.5 -239t-239.5 -98t-239.5 98t-98.5 239zM1380 317q0 -76 53 -129t130 -53t129.5 52.5t52.5 129.5t-53 130t-129 53q-77 0 -130 -53t-53 -130z" />
<glyph unicode="&#x26;" horiz-adv-x="1650" d="M205 418q0 131 66.5 229t160.5 146q-76 83 -106.5 150t-30.5 151q0 72 28.5 138.5t83 121.5t143 88t198.5 33q102 0 186 -35.5t138 -95t83 -135.5t29 -158h-213q0 98 -62.5 159.5t-169.5 61.5q-104 0 -166.5 -58t-62.5 -141q0 -30 9 -58.5t19 -48.5t35.5 -49.5t40 -44 t50.5 -49.5l448 -446q76 123 76 270h-103v109h318q0 -324 -146 -527l230 -229h-254l-103 100q-161 -120 -401 -120q-243 0 -383.5 126t-140.5 312zM418 465q0 -118 92.5 -200.5t243.5 -82.5q126 0 229 64l-434 430q-57 -26 -94 -82.5t-37 -128.5z" />
<glyph unicode="'" horiz-adv-x="475" d="M225 1085v416h168v-416h-168z" />
<glyph unicode="(" horiz-adv-x="786" d="M164 272v746q0 223 120.5 329.5t338.5 106.5v-203q-43 0 -83 -11t-78.5 -36t-61.5 -73t-23 -113v-746q0 -65 23 -112.5t61.5 -72.5t78.5 -36.5t83 -11.5v-203q-218 0 -338.5 106.5t-120.5 329.5z" />
<glyph unicode=")" horiz-adv-x="765" d="M143 39q43 0 83 11.5t78.5 36.5t61.5 72.5t23 112.5v746q0 65 -23 113t-61.5 73t-78.5 36t-83 11v203q218 0 338.5 -106.5t120.5 -329.5v-746q0 -223 -120.5 -329.5t-338.5 -106.5v203z" />
<glyph unicode="*" horiz-adv-x="1101" d="M205 1038v168l270 -22l-156 223l146 84l117 -246l114 246l146 -84l-156 -223l272 22v-168l-272 25l156 -223l-146 -84l-114 248l-117 -248l-146 84l156 223z" />
<glyph unicode="+" horiz-adv-x="1196" d="M205 483v203h293v291h202v-291h293v-203h-293v-295h-202v295h-293z" />
<glyph unicode="," horiz-adv-x="487" d="M61 -291l101 416h223l-156 -416h-168z" />
<glyph unicode="-" horiz-adv-x="1120" d="M186 451v202h789v-202h-789z" />
<glyph unicode="." horiz-adv-x="393" d="M61 94q0 47 34 81t81 34t81 -34t34 -81t-34 -80.5t-81 -33.5t-81 33.5t-34 80.5z" />
<glyph unicode="/" horiz-adv-x="894" d="M102 0l545 1454h187l-545 -1454h-187z" />
<glyph unicode="0" horiz-adv-x="1376" d="M164 502v450q0 96 29.5 180.5t81 146.5t120.5 106.5t149 67t165 22.5q107 0 205 -36t173.5 -101t120.5 -165.5t45 -220.5v-450q0 -120 -45 -220t-120.5 -165t-173 -101t-205.5 -36q-107 0 -204.5 36t-174 101t-121.5 165t-45 220zM377 502q0 -141 96.5 -230.5 t235.5 -89.5t235 89.5t96 230.5v450q0 141 -96 230.5t-235 89.5t-235.5 -89.5t-96.5 -230.5v-450z" />
<glyph unicode="1" horiz-adv-x="1112" d="M141 0v203h328v989l-283 -64v211l498 115v-1251h326v-203h-869z" />
<glyph unicode="2" horiz-adv-x="1349" d="M184 0v203q0 70 27.5 131t74.5 108t107.5 89t127.5 77.5t133.5 70.5t127 72t107.5 76.5t74.5 90t27.5 106.5q0 108 -75 178t-195 70q-142 0 -233 -75.5t-91 -192.5h-213q0 198 154 334.5t385 136.5q209 0 346 -126.5t137 -330.5q0 -80 -27.5 -150t-74 -122t-106.5 -98 t-127 -82.5t-133.5 -70.5t-126.5 -66.5t-106.5 -66t-74 -74t-27.5 -85.5h803v-203h-1022z" />
<glyph unicode="3" horiz-adv-x="1372" d="M184 457h213q0 -127 92.5 -201t225.5 -74q139 0 219 68.5t80 177.5q0 79 -45 130.5t-113.5 72t-159.5 20.5h-108v201h108q125 0 190.5 56t65.5 145q0 97 -69.5 158t-188.5 61q-128 0 -212.5 -76t-84.5 -199h-213q0 98 36.5 185t102.5 152t165.5 103t218.5 38 q100 0 187 -33.5t146 -89.5t93 -130.5t34 -156.5q0 -193 -166 -305q228 -117 228 -346q0 -86 -34.5 -164.5t-97.5 -138.5t-159 -95.5t-211 -35.5q-120 0 -222 38t-172 102.5t-109.5 151.5t-39.5 185z" />
<glyph unicode="4" horiz-adv-x="1423" d="M143 291v203l758 960h213v-960h207v-203h-207v-291h-213v291h-758zM414 494h487v632z" />
<glyph unicode="5" horiz-adv-x="1372" d="M184 457h213q5 -112 89 -188t216 -76q130 0 221 84t91 215q0 140 -87.5 220.5t-221.5 80.5q-95 0 -179 -45.5t-116 -131.5h-211l129 838h798v-203h-618l-53 -342q130 74 295 74q98 0 185.5 -35.5t152.5 -99t103 -159t38 -208.5q0 -100 -39 -191.5t-106.5 -160t-166 -109 t-210.5 -40.5q-119 0 -219 39.5t-165.5 105.5t-102 152t-36.5 180z" />
<glyph unicode="6" horiz-adv-x="1413" d="M205 479q0 150 86 275l454 700h248l-321 -479q18 2 57 2q147 0 267 -69t186.5 -183t66.5 -246q0 -99 -39.5 -190.5t-107.5 -159.5t-165.5 -108.5t-207.5 -40.5q-149 0 -270 69t-187.5 183t-66.5 247zM418 479q0 -121 88.5 -209t222.5 -88q131 0 218 88t87 209 q0 120 -87.5 208.5t-217.5 88.5q-133 0 -222 -88.5t-89 -208.5z" />
<glyph unicode="7" horiz-adv-x="1284" d="M164 1251v203h1018v-203l-609 -1251h-233l608 1251h-784z" />
<glyph unicode="8" horiz-adv-x="1349" d="M184 436q0 120 61 215.5t163 155.5q-142 118 -142 274q0 163 125 275t303 112t304 -112t126 -275q0 -157 -141 -274q102 -60 162.5 -155.5t60.5 -215.5q0 -193 -142.5 -321.5t-369.5 -128.5q-226 0 -368 128.5t-142 321.5zM397 436q0 -107 85 -177.5t212 -70.5 q128 0 212.5 70.5t84.5 177.5t-84.5 177.5t-212.5 70.5q-127 0 -212 -70.5t-85 -177.5zM479 1081q0 -87 65.5 -136.5t149.5 -49.5t149.5 49.5t65.5 136.5q0 86 -65.5 135.5t-149.5 49.5t-149.5 -49.5t-65.5 -135.5z" />
<glyph unicode="9" horiz-adv-x="1413" d="M205 975q0 133 66.5 247.5t186.5 183.5t267 69q112 0 210.5 -40.5t166.5 -109t107.5 -159.5t39.5 -191q0 -167 -102 -297l-440 -678h-246l321 479q-18 -2 -57 -2q-147 0 -267 69t-186.5 183t-66.5 246zM418 975q0 -120 88 -207.5t219 -87.5q133 0 221 87.5t88 207.5 q0 121 -88 209t-221 88q-131 0 -219 -88t-88 -209z" />
<glyph unicode=":" horiz-adv-x="475" d="M143 94q0 47 34 81t81 34t81 -34t34 -81t-34 -80.5t-81 -33.5t-81 33.5t-34 80.5zM143 862q0 47 34 81t81 34t81 -34t34 -81q0 -49 -33.5 -81.5t-81.5 -32.5t-81.5 32.5t-33.5 81.5z" />
<glyph unicode=";" horiz-adv-x="495" d="M57 -291l101 416h223l-156 -416h-168zM154 862q0 47 33.5 81t80.5 34t81 -34t34 -81q0 -49 -33.5 -81.5t-81.5 -32.5t-81 32.5t-33 81.5z" />
<glyph unicode="&#x3c;" horiz-adv-x="1185" d="M193 510v188l788 308v-187l-553 -215l553 -215v-184z" />
<glyph unicode="=" horiz-adv-x="1196" d="M205 319v203h786v-203h-786zM205 643v203h786v-203h-786z" />
<glyph unicode="&#x3e;" horiz-adv-x="1196" d="M205 205v184l553 215l-553 215v187l786 -308v-188z" />
<glyph unicode="?" horiz-adv-x="1150" d="M131 995q0 111 40 203.5t106.5 152t151.5 92t177 32.5q105 0 193 -34.5t144 -90.5t87 -125.5t31 -141.5q0 -150 -99.5 -261.5t-271.5 -149.5l-6 -262h-190l-13 399h41q156 0 241 64.5t85 179.5q0 96 -66.5 157.5t-171.5 61.5q-109 0 -186.5 -74t-77.5 -203h-215zM473 94 q0 47 34 81t81 34q49 0 81.5 -33.5t32.5 -81.5t-32.5 -81t-81.5 -33q-47 0 -81 33.5t-34 80.5z" />
<glyph unicode="@" horiz-adv-x="2056" d="M205 684q0 225 115.5 415.5t304.5 299t403 108.5q175 0 328 -60.5t261.5 -166t171 -254.5t62.5 -319q0 -233 -113 -376t-288 -143q-107 0 -163 70t-56 207q-33 -70 -110.5 -115t-168.5 -45q-141 0 -242.5 111.5t-101.5 267.5t101.5 267.5t242.5 111.5q88 0 162 -44 t107 -112v150h168v-549q0 -189 106 -189q78 0 133 96.5t55 268.5q0 135 -41.5 252.5t-121 208t-206 142.5t-286.5 52q-131 0 -251 -49.5t-209 -134.5t-142 -208t-53 -263q0 -119 36 -223t96 -178t138.5 -128t164 -80t171.5 -26q152 0 309 80l148 -96q-216 -152 -457 -152 q-115 0 -227.5 34.5t-211 104t-173.5 164.5t-118.5 224.5t-43.5 275.5zM786 684q0 -88 62.5 -149.5t150.5 -61.5q87 0 149 62t62 149t-62 149t-149 62q-88 0 -150.5 -62.5t-62.5 -148.5z" />
<glyph unicode="A" horiz-adv-x="1576" d="M164 0l524 1454h242l524 -1454h-221l-123 340h-602l-123 -340h-221zM582 543h456l-229 633z" />
<glyph unicode="B" horiz-adv-x="1288" d="M176 0v1454h436q221 0 341 -105.5t120 -279.5q0 -92 -40.5 -167t-112.5 -126q107 -57 171 -151t64 -213q0 -196 -137 -304t-375 -108h-467zM389 203h254q146 0 221.5 57t75.5 164t-75.5 172.5t-211.5 65.5h-264v-459zM389 864h223q246 0 246 195q0 93 -63.5 142.5 t-182.5 49.5h-223v-387z" />
<glyph unicode="C" horiz-adv-x="1480" d="M184 727q0 155 56.5 293.5t153.5 238.5t232 158t285 58q144 0 251.5 -42.5t174.5 -101.5v-217q-60 63 -161.5 110.5t-239.5 47.5q-145 0 -268.5 -69.5t-197 -195.5t-73.5 -280t73.5 -280t197 -195.5t268.5 -69.5q137 0 238 48t163 110v-217q-67 -58 -174.5 -100.5 t-251.5 -42.5q-151 0 -285.5 58t-231.5 157.5t-153.5 238t-56.5 293.5z" />
<glyph unicode="D" horiz-adv-x="1443" d="M152 0v1454h485q152 0 282.5 -56.5t220.5 -154t140.5 -231t50.5 -285.5t-50.5 -285.5t-140.5 -231t-220.5 -154t-282.5 -56.5h-485zM367 203h270q210 0 345.5 141.5t135.5 382.5t-135.5 382.5t-345.5 141.5h-270v-1048z" />
<glyph unicode="E" horiz-adv-x="1060" d="M152 0v1454h798v-203h-583v-403h454v-203h-454v-442h583v-203h-798z" />
<glyph unicode="F" horiz-adv-x="1042" d="M143 0v1454h797v-203h-584v-409h496v-203h-496v-639h-213z" />
<glyph unicode="G" horiz-adv-x="1775" d="M184 727q0 203 93 373.5t264 272.5t385 102q354 0 573 -301l-162 -125q-156 223 -411 223q-150 0 -272 -73t-189.5 -197.5t-67.5 -274.5q0 -151 64 -275t180.5 -197t261.5 -73q196 0 330.5 111.5t171.5 296.5h-553v203h780q0 -372 -200.5 -592.5t-528.5 -220.5 q-203 0 -369 101.5t-258 272t-92 373.5z" />
<glyph unicode="H" horiz-adv-x="1417" d="M152 0v1454h215v-625h725v625h215v-1454h-215v627h-725v-627h-215z" />
<glyph unicode="I" horiz-adv-x="499" d="M164 0v1454h213v-1454h-213z" />
<glyph unicode="J" horiz-adv-x="1116" d="M164 389h213q0 -94 51 -150.5t141 -56.5q91 0 141 55.5t50 192.5v1024h213v-1024q0 -221 -110.5 -335.5t-284.5 -114.5q-74 0 -144.5 24t-132.5 71t-99.5 128.5t-37.5 185.5z" />
<glyph unicode="K" horiz-adv-x="1386" d="M164 0v1454h213v-698l612 698h275l-584 -670l584 -784h-252l-471 625l-164 -185v-440h-213z" />
<glyph unicode="L" horiz-adv-x="1134" d="M184 0v1454h213v-1251h594v-203h-807z" />
<glyph unicode="M" horiz-adv-x="1828" d="M186 0v1454h215l533 -852l534 852h215v-1454h-215v1067l-487 -784h-92l-488 784v-1067h-215z" />
<glyph unicode="N" horiz-adv-x="1495" d="M164 0v1454h213l782 -1094v1094h213v-1454h-213l-782 1094v-1094h-213z" />
<glyph unicode="O" horiz-adv-x="1802" d="M184 727q0 203 97 375t267 272.5t374 100.5q152 0 289 -59.5t235 -160t155.5 -238.5t57.5 -290t-57.5 -290t-155.5 -238.5t-235 -159.5t-289 -59q-204 0 -374 100.5t-267 272t-97 374.5zM397 727q0 -110 40 -210t109 -174t167.5 -117.5t208.5 -43.5q146 0 266.5 74 t188 199t67.5 272t-67.5 272t-188 199t-266.5 74q-110 0 -208.5 -43.5t-167.5 -117.5t-109 -174t-40 -210z" />
<glyph unicode="P" horiz-adv-x="1288" d="M152 0v1454h503q107 0 201.5 -32.5t166 -92.5t113.5 -153.5t42 -208.5q0 -151 -72.5 -263.5t-189.5 -167.5t-261 -55h-288v-481h-215zM367 682h288q139 0 224.5 73.5t85.5 211.5t-85.5 211t-224.5 73h-288v-569z" />
<glyph unicode="Q" horiz-adv-x="1796" d="M184 727q0 203 97 375t267 272.5t374 100.5q152 0 289 -59.5t235 -160t155.5 -238.5t57.5 -290q0 -275 -176 -487l188 -191l-147 -147l-197 198q-182 -120 -405 -120q-204 0 -374 100.5t-267 272t-97 374.5zM397 727q0 -110 40 -210t109 -174t167.5 -117.5t208.5 -43.5 q138 0 258 68l-201 205l145 145l209 -211q111 149 111 338q0 147 -67.5 272t-188 199t-266.5 74q-110 0 -208.5 -43.5t-167.5 -117.5t-109 -174t-40 -210z" />
<glyph unicode="R" horiz-adv-x="1300" d="M152 0v1454h532q96 0 185 -34.5t158 -96t110 -155.5t41 -205q0 -164 -84.5 -284t-221.5 -173l318 -506h-242l-295 471h-286v-471h-215zM367 674h317q118 0 199.5 79t81.5 210q0 132 -81 210t-200 78h-317v-577z" />
<glyph unicode="S" horiz-adv-x="1277" d="M203 422h213q7 -117 83 -178.5t183 -61.5q111 0 174.5 51.5t63.5 131.5q0 39 -16 73.5t-37 58.5t-66.5 54.5t-77.5 48t-98 51.5q-111 63 -177.5 109t-119 100.5t-74 114t-21.5 135.5q0 159 121.5 262t300.5 103q185 0 303.5 -121.5t124.5 -300.5h-213q-6 99 -65 159 t-150 60q-88 0 -148.5 -47.5t-60.5 -122.5q0 -46 15 -80.5t51.5 -64.5t71.5 -50.5t100 -54.5q5 -2 8.5 -4t7.5 -4q87 -46 147.5 -83t118.5 -83.5t92.5 -93t55.5 -104.5t21 -124q0 -116 -61 -202.5t-163 -130t-229 -43.5q-209 0 -341 128t-138 314z" />
<glyph unicode="T" horiz-adv-x="1159" d="M143 1251v203h914v-203h-350v-1251h-213v1251h-351z" />
<glyph unicode="U" horiz-adv-x="1413" d="M152 610v844h215v-844q0 -226 92.5 -327t267.5 -101t267.5 101t92.5 327v844h213v-844q0 -317 -150.5 -473.5t-422.5 -156.5q-274 0 -424.5 156.5t-150.5 473.5z" />
<glyph unicode="V" horiz-adv-x="1497" d="M143 1454h224l401 -1192l403 1192h224l-502 -1454h-248z" />
<glyph unicode="W" horiz-adv-x="2377" d="M143 1454h219l369 -1173l369 1173h219l369 -1173l368 1173h219l-460 -1454h-254l-353 1108l-350 -1108h-254z" />
<glyph unicode="X" horiz-adv-x="1603" d="M143 0l549 727l-549 727h260l418 -555l420 555h260l-549 -727l549 -727h-260l-420 555l-418 -555h-260z" />
<glyph unicode="Y" horiz-adv-x="1515" d="M143 1454h242l393 -639l393 639h242l-528 -860v-594h-213v594z" />
<glyph unicode="Z" horiz-adv-x="1429" d="M184 0v203l844 1048h-844v203h1123v-203l-844 -1048h844v-203h-1123z" />
<glyph unicode="[" horiz-adv-x="786" d="M164 -164v1618h459v-203h-246v-1212h246v-203h-459z" />
<glyph unicode="\" horiz-adv-x="894" d="M102 1454h187l545 -1454h-187z" />
<glyph unicode="]" horiz-adv-x="765" d="M143 39h246v1212h-246v203h459v-1618h-459v203z" />
<glyph unicode="^" horiz-adv-x="1105" d="M102 635l377 819h189l376 -819h-188l-283 614l-282 -614h-189z" />
<glyph unicode="_" horiz-adv-x="1331" d="M61 -37h1250v-166h-1250v166z" />
<glyph unicode="`" horiz-adv-x="796" d="M205 1489h223l166 -313h-168z" />
<glyph unicode="a" d="M184 518q0 147 67.5 270.5t187.5 196t266 72.5q135 0 241 -66t152 -168l12 213h203v-1036h-203l-12 215q-46 -103 -151.5 -169t-241.5 -66q-109 0 -206 42.5t-166 115t-109 171.5t-40 209zM397 518q0 -140 98 -238t244 -98q143 0 239.5 98t96.5 238t-96.5 238t-239.5 98 q-146 0 -244 -98t-98 -238z" />
<glyph unicode="b" horiz-adv-x="1431" d="M162 0v1536h213v-713q46 102 153 168t242 66q146 0 265 -72.5t186 -196t67 -270.5t-67 -270t-186 -195.5t-265 -72.5q-136 0 -242.5 66t-152.5 169l-10 -215h-203zM397 518q0 -140 96.5 -238t241.5 -98t242.5 98t97.5 238t-97.5 238t-242.5 98t-241.5 -98t-96.5 -238z " />
<glyph unicode="c" horiz-adv-x="1175" d="M184 518q0 144 69.5 267.5t193 197.5t272.5 74q191 0 313 -115v-205q-120 117 -280 117q-136 0 -239 -96t-103 -240t103 -240t239 -96q158 0 280 119v-207q-121 -114 -313 -114q-149 0 -272.5 73t-193 196.5t-69.5 268.5z" />
<glyph unicode="d" d="M184 518q0 147 67.5 270.5t187.5 196t266 72.5q135 0 241 -66t152 -168v713h215v-1536h-203l-12 215q-46 -103 -151.5 -169t-241.5 -66q-109 0 -206 42.5t-166 115t-109 171.5t-40 209zM397 518q0 -140 98 -238t244 -98q143 0 239.5 98t96.5 238t-96.5 238t-239.5 98 q-146 0 -244 -98t-98 -238z" />
<glyph unicode="e" horiz-adv-x="1363" d="M184 524q0 108 37.5 205t104 170t164.5 115.5t212 42.5q116 0 215 -44.5t164.5 -120t102.5 -175.5t37 -211v-53h-824q5 -124 92 -203.5t232 -79.5q104 0 177 47t110 115l186 -21q-14 -56 -51 -112.5t-94.5 -106.5t-143.5 -81t-186 -31q-234 0 -384.5 155t-150.5 389z M397 602h609q-6 109 -90 186.5t-214 77.5q-128 0 -213.5 -76.5t-91.5 -187.5z" />
<glyph unicode="f" horiz-adv-x="811" d="M123 834v202h106v94q0 94 24.5 163.5t67 107.5t91.5 56t104 18q60 0 111 -18.5t82 -41.5v-180q-18 11 -54.5 24t-68.5 13q-79 0 -110.5 -44t-31.5 -128v-64h256v-202h-256v-834h-215v834h-106z" />
<glyph unicode="g" horiz-adv-x="1245" d="M184 -156q0 145 129 226q-92 59 -92 137q0 97 121 155q-74 54 -116 133.5t-42 172.5q0 169 124 279t308 110q116 0 211 -45l277 24v-190l-107 14q54 -90 54 -192q0 -168 -125 -278.5t-310 -110.5q-78 0 -149 22q-43 -21 -43 -57t46.5 -50t139.5 -14q234 0 363 -92 t129 -244q0 -104 -65.5 -182t-168 -116t-225.5 -38t-225.5 38t-168 116t-65.5 182zM387 -152q0 -76 69.5 -118.5t186.5 -42.5q119 0 187.5 39t68.5 114q0 162 -350 162q-27 0 -41 2q-48 -23 -84.5 -65.5t-36.5 -90.5zM387 668q0 -90 67 -149.5t162 -59.5q97 0 164.5 59.5 t67.5 149.5q0 91 -67.5 151t-164.5 60q-95 0 -162 -60t-67 -151z" />
<glyph unicode="h" horiz-adv-x="1310" d="M184 0v1536h213v-664q174 185 398 185q183 0 282 -116.5t99 -332.5v-608h-213v514q0 340 -250 340q-73 0 -133 -27t-98 -72t-59.5 -100t-25.5 -114v-541h-213z" />
<glyph unicode="i" horiz-adv-x="487" d="M129 1311q0 47 34 80.5t81 33.5t80.5 -33.5t33.5 -80.5t-33.5 -81t-80.5 -34t-81 34t-34 81zM137 0v1036h213v-1036h-213z" />
<glyph unicode="j" horiz-adv-x="544" d="M61 -471l177 485v1022h215v-1036l-168 -471h-224zM229 1311q0 47 34 80.5t81 33.5t81 -33.5t34 -80.5t-34 -81t-81 -34t-81 34t-34 81z" />
<glyph unicode="k" horiz-adv-x="1310" d="M184 0v1536h213v-963l492 463h299l-475 -450l475 -586h-266l-361 442l-164 -155v-287h-213z" />
<glyph unicode="l" horiz-adv-x="520" d="M184 0v1536h213v-1536h-213z" />
<glyph unicode="m" horiz-adv-x="1933" d="M184 0v1036h201l10 -162q158 183 359 183q114 0 192.5 -57t116.5 -160q169 217 387 217q162 0 251 -111.5t89 -296.5v-649h-213v578q0 127 -54.5 201.5t-152.5 74.5q-120 0 -194 -108.5t-82 -276.5v-469h-213v578q0 127 -54 201.5t-153 74.5q-120 0 -194.5 -108.5 t-82.5 -276.5v-469h-213z" />
<glyph unicode="n" horiz-adv-x="1310" d="M184 0v1036h201l10 -166q176 187 400 187q183 0 282 -116.5t99 -332.5v-608h-213v514q0 340 -250 340q-73 0 -133 -27t-98 -72t-59.5 -100t-25.5 -114v-541h-213z" />
<glyph unicode="o" horiz-adv-x="1431" d="M184 518q0 147 71 270.5t198.5 196t285.5 72.5q155 0 281.5 -72.5t197 -196t70.5 -270.5t-70.5 -270t-197 -195.5t-281.5 -72.5q-158 0 -285.5 72.5t-198.5 195.5t-71 270zM397 518q0 -140 98 -238t244 -98q143 0 239.5 98t96.5 238t-96.5 238t-239.5 98q-146 0 -244 -98 t-98 -238z" />
<glyph unicode="p" d="M184 -471v1507h201l12 -213q48 102 154.5 168t241.5 66q146 0 265.5 -72.5t187 -196t67.5 -270.5t-67.5 -270.5t-187 -195.5t-265.5 -72q-136 0 -242.5 66t-153.5 169v-686h-213zM422 518q0 -140 96 -238t240 -98q145 0 242.5 98t97.5 238t-97.5 238t-242.5 98 q-144 0 -240 -98t-96 -238z" />
<glyph unicode="q" d="M184 518q0 147 67.5 270.5t187.5 196t266 72.5q135 0 241 -66t152 -168l12 213h203v-1507h-215v686q-46 -103 -151.5 -169t-241.5 -66q-109 0 -206 42.5t-166 115t-109 171.5t-40 209zM397 518q0 -140 98 -238t244 -98q143 0 239.5 98t96.5 238t-96.5 238t-239.5 98 q-146 0 -244 -98t-98 -238z" />
<glyph unicode="r" horiz-adv-x="817" d="M184 0v1036h201l10 -121q112 142 234 142q75 0 127 -45l-33 -187q-48 29 -107 29q-106 0 -162.5 -101.5t-56.5 -263.5v-489h-213z" />
<glyph unicode="s" horiz-adv-x="1183" d="M184 301h213q15 -64 78.5 -102.5t161.5 -38.5q81 0 134.5 30t53.5 84q0 27 -10 47.5t-28.5 36t-51 31t-70.5 29.5t-94 33l-18 6t-16 5.5t-19 6.5q-67 22 -117 46.5t-94 60t-67 84.5t-23 110q0 86 53.5 152.5t136.5 100.5t177 34q175 0 282 -86.5t115 -218.5h-215 q-6 61 -57 94t-117 33q-63 0 -111.5 -29t-48.5 -80q0 -14 3 -25t11 -21.5t16 -18.5t25.5 -17.5t31.5 -16.5t41.5 -17.5t48 -18t58.5 -21t66 -24.5q157 -55 232 -133.5t75 -186.5q0 -134 -115 -212t-292 -78q-193 0 -313.5 82.5t-135.5 238.5z" />
<glyph unicode="t" horiz-adv-x="815" d="M123 834v202h153v307h216v-307h221v-202h-221v-834h-216v834h-153z" />
<glyph unicode="u" horiz-adv-x="1310" d="M176 428v608h213v-514q0 -340 250 -340q77 0 138.5 29.5t99 79t57.5 108.5t20 121v516h213v-1036h-200l-11 166q-175 -186 -399 -186q-183 0 -282 116t-99 332z" />
<glyph unicode="v" horiz-adv-x="1411" d="M164 1036h239l324 -813l324 813h237l-438 -1036h-248z" />
<glyph unicode="w" horiz-adv-x="2004" d="M164 1036h227l258 -772l260 772h228l258 -772l260 772h227l-375 -1036h-223l-262 723l-260 -723h-223z" />
<glyph unicode="x" horiz-adv-x="1382" d="M164 0l416 518l-416 518h264l285 -372l284 372h263l-416 -518l416 -518h-263l-284 373l-285 -373h-264z" />
<glyph unicode="y" horiz-adv-x="1402" d="M164 1036h229l332 -770l326 770h229l-647 -1507h-225l202 473z" />
<glyph unicode="z" horiz-adv-x="1169" d="M184 0v203l574 631h-574v202h863v-202l-576 -631h576v-203h-863z" />
<glyph unicode="{" horiz-adv-x="870" d="M190 545v200q117 0 117 78q0 41 -30.5 156t-30.5 201q0 67 23 116t61.5 79t99 48t126 24.5t151.5 6.5v-203q-40 0 -66 -1.5t-63.5 -9.5t-60 -23t-39.5 -45t-17 -72q0 -58 29.5 -162t29.5 -162q0 -57 -32.5 -94t-73.5 -37q41 0 73.5 -37t32.5 -94q0 -58 -29.5 -162 t-29.5 -162q0 -42 17 -72t39.5 -45t60 -23t63.5 -9.5t66 -1.5v-203q-86 0 -151.5 6.5t-126 25t-99 48.5t-61.5 79t-23 116q0 87 30.5 201t30.5 155q0 78 -117 78z" />
<glyph unicode="|" horiz-adv-x="468" d="M160 -164v1782h168v-1782h-168z" />
<glyph unicode="}" horiz-adv-x="839" d="M135 39q40 0 66 1.5t63.5 9.5t60 23t39.5 45t17 72q0 58 -29.5 162t-29.5 162q0 57 31.5 94t72.5 37q-41 0 -72.5 37t-31.5 94q0 58 29.5 162t29.5 162q0 42 -17 72t-39.5 45t-60 23t-63.5 9.5t-66 1.5v203q85 0 150.5 -6.5t125.5 -24.5t98.5 -48t61.5 -79t23 -116 q0 -86 -31 -200.5t-31 -156.5q0 -78 117 -78v-200q-117 0 -117 -78q0 -41 31 -155t31 -201q0 -67 -23 -116t-61.5 -79t-98.5 -48.5t-125.5 -25t-150.5 -6.5v203z" />
<glyph unicode="~" horiz-adv-x="1294" d="M205 471q10 108 70.5 178t177.5 70q52 0 101.5 -22.5t82 -49.5t76 -49.5t84.5 -22.5q55 0 84.5 29t29.5 82l179 -35q-8 -107 -69 -177.5t-177 -70.5q-52 0 -102 22.5t-82 49.5t-76 49.5t-86 22.5q-53 0 -83 -31t-30 -80z" />
<glyph unicode="&#xa1;" horiz-adv-x="487" d="M150 868q0 48 32.5 81.5t81.5 33.5q47 0 81 -34t34 -81t-34 -80.5t-81 -33.5q-49 0 -81.5 33t-32.5 81zM156 -492l12 1047h190l13 -1047h-215z" />
<glyph unicode="&#xa2;" horiz-adv-x="1316" d="M205 518q0 142 67.5 264.5t188.5 197t268 77.5v127h64v-129q154 -14 260 -113v-205q-114 111 -260 117v-672q147 9 260 119v-207q-104 -98 -260 -112v-129h-64v127q-147 3 -268 76.5t-188.5 196t-67.5 265.5zM430 518q0 -131 87.5 -225t211.5 -109v668 q-124 -15 -211.5 -109t-87.5 -225z" />
<glyph unicode="&#xa3;" horiz-adv-x="1413" d="M205 -14v207q109 71 260 71q42 0 82 -6q-4 116 -27 189.5t-71 136.5h-244v63h186q-186 199 -186 406q0 182 135 302t340 120q210 0 338.5 -139t128.5 -355h-215q0 135 -67.5 213t-192.5 78q-109 0 -181.5 -65.5t-72.5 -166.5q0 -34 8 -66t19 -57t34 -57.5t40 -54 t50.5 -61.5t53.5 -66q14 -17 22 -31h340v-63h-299q73 -140 76 -375q110 -27 186 -27q146 0 260 74v-205q-109 -71 -260 -71q-95 0 -244 40.5t-239 40.5q-150 0 -260 -75z" />
<glyph unicode="&#xa4;" horiz-adv-x="1165" d="M205 297l129 127q-76 90 -79 207.5t67 210.5l-117 119l47 45l115 -117q93 87 219.5 89.5t222.5 -79.5l106 107l46 -45l-107 -107q80 -96 77 -221.5t-89 -218.5l119 -117l-48 -47l-118 119q-93 -71 -209.5 -68.5t-206.5 78.5l-127 -129zM410 640q0 -74 55 -130 q54 -54 128 -54t128 54q55 56 55 130t-55 128q-54 54 -128 54t-128 -54q-55 -54 -55 -128z" />
<glyph unicode="&#xa5;" horiz-adv-x="1679" d="M205 1454h241l394 -639l393 639h242l-529 -860v-74h361v-63h-361v-80h361v-64h-361v-313h-213v313h-358v64h358v80h-358v63h358v74z" />
<glyph unicode="&#xa6;" horiz-adv-x="468" d="M160 -164v594h168v-594h-168zM160 1024v594h168v-594h-168z" />
<glyph unicode="&#xa7;" horiz-adv-x="1050" d="M184 713q0 77 49 139t134 98q-152 95 -152 246q0 118 88 198.5t234 80.5q67 0 123.5 -19t94.5 -50.5t65.5 -72t41 -82.5t15.5 -84h-168q-6 63 -50 101.5t-122 38.5q-62 0 -108 -35t-46 -98q0 -59 56 -99.5t153 -60.5q47 -10 84.5 -21.5t83 -33.5t75.5 -49.5t51 -71.5 t21 -97q0 -75 -53 -137t-141 -98q76 -42 125 -105t49 -141q0 -120 -84.5 -200t-237.5 -80q-85 0 -151 27.5t-105 73.5t-60 98.5t-24 109.5h168q6 -66 50 -104t122 -38q68 0 111 32.5t43 88.5q0 113 -238 178q-127 37 -179 67q-118 68 -118 200zM352 723q0 -60 40 -93.5 t114 -54.5q99 3 166 47.5t67 102.5q0 35 -14.5 61.5t-43 44t-55 28t-65.5 20.5q-87 -8 -148 -51.5t-61 -104.5z" />
<glyph unicode="&#xa8;" horiz-adv-x="997" d="M205 1343q0 47 33.5 81t80.5 34t81 -34t34 -81q0 -49 -33.5 -81.5t-81.5 -32.5t-81 32.5t-33 81.5zM563 1343q0 47 34 81t81 34t81 -34t34 -81q0 -49 -33.5 -81.5t-81.5 -32.5t-81.5 32.5t-33.5 81.5z" />
<glyph unicode="&#xa9;" horiz-adv-x="1966" d="M205 768q0 161 62.5 307t167.5 251t250.5 167.5t305.5 62.5q161 0 307 -62.5t252 -167.5t169 -251t63 -307t-63 -307t-169 -251t-252 -167.5t-307 -62.5q-160 0 -305.5 62.5t-250.5 167.5t-167.5 251t-62.5 307zM371 768q0 -169 82.5 -312t225.5 -226t312 -83t312 83 t226 226t83 312t-83 312t-226 226t-312 83t-312 -83t-225.5 -226t-82.5 -312zM508 768q0 106 41.5 197.5t108.5 152.5t152.5 96t174.5 35q189 0 338 -129l-68 -153q-110 102 -247 102q-127 0 -217.5 -86.5t-90.5 -214.5t90.5 -214.5t217.5 -86.5q134 0 247 104l68 -155 q-149 -129 -338 -129q-120 0 -228 58t-178.5 170t-70.5 253z" />
<glyph unicode="&#xab;" horiz-adv-x="1212" d="M205 494l252 362h235l-252 -362l252 -363h-235zM561 494l252 362h236l-252 -362l252 -363h-236z" />
<glyph unicode="&#xac;" horiz-adv-x="1196" d="M205 504v203h788v-396h-202v193h-586z" />
<glyph unicode="&#xad;" horiz-adv-x="1120" d="M186 451v202h789v-202h-789z" />
<glyph unicode="&#xae;" horiz-adv-x="1966" d="M205 764q0 161 62.5 307t167.5 251t250.5 167.5t305.5 62.5q161 0 307 -62.5t252 -167.5t169 -251t63 -307t-63 -307t-169 -251.5t-252 -168t-307 -62.5q-160 0 -305.5 62.5t-250.5 168t-167.5 251.5t-62.5 307zM371 764q0 -168 82.5 -311t225.5 -226.5t312 -83.5 t312 83.5t226 226.5t83 311q0 169 -83 312t-226 225.5t-312 82.5q-127 0 -241.5 -49t-197.5 -132t-132 -197.5t-49 -241.5zM715 369v811h297q131 0 215 -75.5t84 -207.5q0 -97 -46.5 -164.5t-125.5 -97.5l172 -266h-199l-143 243h-86v-243h-168zM883 780h129q59 0 95 28 t36 89q0 60 -36.5 88.5t-94.5 28.5h-129v-234z" />
<glyph unicode="&#xaf;" horiz-adv-x="933" d="M205 1237v203h516v-203h-516z" />
<glyph unicode="&#xb0;" horiz-adv-x="942" d="M164 1137q0 141 98.5 239.5t239.5 98.5t239.5 -98.5t98.5 -239.5t-98.5 -239.5t-239.5 -98.5t-239.5 98.5t-98.5 239.5zM319 1137q0 -77 53.5 -130t129.5 -53t129 53t53 130t-53 129.5t-129 52.5q-77 0 -130 -53t-53 -129z" />
<glyph unicode="&#xb1;" horiz-adv-x="1196" d="M205 80v203h788v-203h-788zM205 598v203h293v291h202v-291h293v-203h-293v-295h-202v295h-293z" />
<glyph unicode="&#xb4;" horiz-adv-x="796" d="M205 1176l166 313h221l-219 -313h-168z" />
<glyph unicode="&#xb6;" horiz-adv-x="1411" d="M205 985q0 147 69 255t183 161t258 53h168v-1454h-168v516q-144 0 -258 53t-183 161t-69 255zM1038 0v1454h168v-1454h-168z" />
<glyph unicode="&#xb7;" horiz-adv-x="370" d="M61 524q0 47 34 81t81 34t81 -34t34 -81q0 -49 -33.5 -81.5t-81.5 -32.5t-81.5 32.5t-33.5 81.5z" />
<glyph unicode="&#xb8;" horiz-adv-x="817" d="M205 -420l41 103q37 0 63.5 0.5t57.5 3t51 7.5t38.5 12.5t27 19.5t8.5 28q0 62 -125 62l-121 -4l73 188h152l-57 -102q91 -2 144.5 -37t53.5 -103q0 -29 -11.5 -54t-27 -42t-44 -31t-51.5 -22.5t-60.5 -14.5t-59 -8.5t-60 -4t-50.5 -1.5h-43z" />
<glyph unicode="&#xbb;" horiz-adv-x="1069" d="M61 131l252 363l-252 362h236l252 -362l-252 -363h-236zM418 131l252 363l-252 362h235l252 -362l-252 -363h-235z" />
<glyph unicode="&#xbf;" horiz-adv-x="995" d="M16 -121q0 150 99.5 262t271.5 150l6 264h191l12 -401h-41q-155 0 -239.5 -64.5t-84.5 -179.5q0 -96 65.5 -157.5t170.5 -61.5q109 0 186.5 73.5t77.5 202.5h215q0 -111 -40 -203.5t-106.5 -151.5t-151.5 -91.5t-177 -32.5q-105 0 -193 34t-144 90t-87 125.5t-31 141.5z M375 868q0 48 32.5 81.5t81.5 33.5q47 0 81 -34t34 -81t-34 -80.5t-81 -33.5q-49 0 -81.5 33t-32.5 81z" />
<glyph unicode="&#xc0;" horiz-adv-x="1576" d="M164 0l524 1454h242l524 -1454h-221l-123 340h-602l-123 -340h-221zM508 1980h221l166 -313h-168zM582 543h456l-229 633z" />
<glyph unicode="&#xc1;" horiz-adv-x="1576" d="M164 0l524 1454h242l524 -1454h-221l-123 340h-602l-123 -340h-221zM582 543h456l-229 633zM725 1667l166 313h221l-219 -313h-168z" />
<glyph unicode="&#xc2;" horiz-adv-x="1576" d="M164 0l524 1454h242l524 -1454h-221l-123 340h-602l-123 -340h-221zM492 1667l237 313h164l237 -313h-192l-127 197l-127 -197h-192zM582 543h456l-229 633z" />
<glyph unicode="&#xc3;" horiz-adv-x="1576" d="M164 0l524 1454h242l524 -1454h-221l-123 340h-602l-123 -340h-221zM367 1731q10 108 70 177.5t177 69.5q52 0 101.5 -22.5t82 -49t76 -49t84.5 -22.5q55 0 85 29t30 82l178 -35q-8 -107 -68.5 -177.5t-176.5 -70.5q-52 0 -102 22.5t-82.5 49t-76.5 49t-86 22.5 q-53 0 -82.5 -30.5t-29.5 -79.5zM582 543h456l-229 633z" />
<glyph unicode="&#xc4;" horiz-adv-x="1576" d="M164 0l524 1454h242l524 -1454h-221l-123 340h-602l-123 -340h-221zM516 1835q0 47 34 81t81 34t80.5 -34t33.5 -81t-33.5 -81t-80.5 -34t-81 34t-34 81zM582 543h456l-229 633zM874 1835q0 47 34 81t81 34t81 -34t34 -81t-34 -81t-81 -34t-81 34t-34 81z" />
<glyph unicode="&#xc5;" horiz-adv-x="1576" d="M164 0l524 1454h242l524 -1454h-221l-123 340h-602l-123 -340h-221zM582 543h456l-229 633zM647 1839q0 67 47.5 114.5t114.5 47.5t114.5 -47.5t47.5 -114.5t-47.5 -114.5t-114.5 -47.5t-114.5 47.5t-47.5 114.5zM745 1839q0 -26 19 -44.5t45 -18.5t44.5 18.5t18.5 44.5 t-18.5 45t-44.5 19t-45 -19t-19 -45z" />
<glyph unicode="&#xc6;" horiz-adv-x="2027" d="M164 0l768 1454h1001v-203h-583v-403h454v-203h-454v-442h583v-203h-796v346h-559l-183 -346h-231zM684 547h453v704h-80z" />
<glyph unicode="&#xc7;" horiz-adv-x="1480" d="M184 727q0 155 56.5 293.5t153.5 238.5t232 158t285 58q144 0 251.5 -42.5t174.5 -101.5v-217q-60 63 -161.5 110.5t-239.5 47.5q-145 0 -268.5 -69.5t-197 -195.5t-73.5 -280t73.5 -280t197 -195.5t268.5 -69.5q137 0 238 48t163 110v-217q-149 -124 -362 -141l-47 -84 q91 -2 144.5 -37t53.5 -103q0 -29 -11.5 -54t-27 -42t-44 -31t-51.5 -22.5t-60.5 -14.5t-59 -8.5t-60 -4t-50.5 -1.5h-43l41 103q37 0 63.5 0.5t57.5 3t51 7.5t38.5 12.5t27 19.5t8.5 28q0 62 -125 62l-121 -4l67 172q-181 20 -328 122.5t-231 266t-84 354.5z" />
<glyph unicode="&#xc8;" horiz-adv-x="1060" d="M152 0v1454h798v-203h-583v-403h454v-203h-454v-442h583v-203h-798zM254 1980h221l166 -313h-168z" />
<glyph unicode="&#xc9;" horiz-adv-x="1060" d="M152 0v1454h798v-203h-583v-403h454v-203h-454v-442h583v-203h-798zM469 1667l166 313h221l-219 -313h-168z" />
<glyph unicode="&#xca;" horiz-adv-x="1060" d="M152 0v1454h798v-203h-583v-403h454v-203h-454v-442h583v-203h-798zM236 1667l237 313h164l237 -313h-192l-127 197l-127 -197h-192z" />
<glyph unicode="&#xcb;" horiz-adv-x="1060" d="M152 0v1454h798v-203h-583v-403h454v-203h-454v-442h583v-203h-798zM260 1835q0 47 34 81t81 34t80.5 -34t33.5 -81t-33.5 -81t-80.5 -34t-81 34t-34 81zM618 1835q0 47 34 81t81 34t81 -34t34 -81t-34 -81t-81 -34t-81 34t-34 81z" />
<glyph unicode="&#xcc;" horiz-adv-x="499" d="M-27 1980h222l165 -313h-167zM164 0v1454h213v-1454h-213z" />
<glyph unicode="&#xcd;" horiz-adv-x="499" d="M164 0v1454h213v-1454h-213zM188 1667l166 313h221l-219 -313h-168z" />
<glyph unicode="&#xce;" horiz-adv-x="499" d="M-45 1667l238 313h163l238 -313h-193l-127 197l-127 -197h-192zM164 0v1454h213v-1454h-213z" />
<glyph unicode="&#xcf;" horiz-adv-x="499" d="M-20 1835q0 47 33.5 81t80.5 34t81 -34t34 -81t-34 -81t-81 -34t-80.5 34t-33.5 81zM164 0v1454h213v-1454h-213zM338 1835q0 47 34 81t81 34t80.5 -34t33.5 -81t-33.5 -81t-80.5 -34t-81 34t-34 81z" />
<glyph unicode="&#xd0;" horiz-adv-x="1443" d="M-94 627v202h246v625h485q152 0 282.5 -56.5t220.5 -154t140.5 -231t50.5 -285.5t-50.5 -285.5t-140.5 -231t-220.5 -154t-282.5 -56.5h-485v627h-246zM367 203h270q210 0 345.5 141.5t135.5 382.5t-135.5 382.5t-345.5 141.5h-270v-422h327v-202h-327v-424z" />
<glyph unicode="&#xd1;" horiz-adv-x="1495" d="M164 0v1454h213l782 -1094v1094h213v-1454h-213l-782 1094v-1094h-213zM334 1731q10 108 70.5 177.5t177.5 69.5q52 0 101.5 -22.5t82 -49t76 -49t84.5 -22.5q55 0 84.5 29t29.5 82l179 -35q-8 -107 -69 -177.5t-177 -70.5q-52 0 -102 22.5t-82 49t-76 49t-86 22.5 q-53 0 -83 -30.5t-30 -79.5z" />
<glyph unicode="&#xd2;" horiz-adv-x="1802" d="M184 727q0 203 97 375t267 272.5t374 100.5q152 0 289 -59.5t235 -160t155.5 -238.5t57.5 -290t-57.5 -290t-155.5 -238.5t-235 -159.5t-289 -59q-204 0 -374 100.5t-267 272t-97 374.5zM397 727q0 -110 40 -210t109 -174t167.5 -117.5t208.5 -43.5q146 0 266.5 74 t188 199t67.5 272t-67.5 272t-188 199t-266.5 74q-110 0 -208.5 -43.5t-167.5 -117.5t-109 -174t-40 -210zM621 1980h221l166 -313h-168z" />
<glyph unicode="&#xd3;" horiz-adv-x="1802" d="M184 727q0 203 97 375t267 272.5t374 100.5q152 0 289 -59.5t235 -160t155.5 -238.5t57.5 -290t-57.5 -290t-155.5 -238.5t-235 -159.5t-289 -59q-204 0 -374 100.5t-267 272t-97 374.5zM397 727q0 -110 40 -210t109 -174t167.5 -117.5t208.5 -43.5q146 0 266.5 74 t188 199t67.5 272t-67.5 272t-188 199t-266.5 74q-110 0 -208.5 -43.5t-167.5 -117.5t-109 -174t-40 -210zM838 1667l166 313h221l-219 -313h-168z" />
<glyph unicode="&#xd4;" horiz-adv-x="1802" d="M184 727q0 203 97 375t267 272.5t374 100.5q152 0 289 -59.5t235 -160t155.5 -238.5t57.5 -290t-57.5 -290t-155.5 -238.5t-235 -159.5t-289 -59q-204 0 -374 100.5t-267 272t-97 374.5zM397 727q0 -110 40 -210t109 -174t167.5 -117.5t208.5 -43.5q146 0 266.5 74 t188 199t67.5 272t-67.5 272t-188 199t-266.5 74q-110 0 -208.5 -43.5t-167.5 -117.5t-109 -174t-40 -210zM604 1667l238 313h164l237 -313h-192l-127 197l-127 -197h-193z" />
<glyph unicode="&#xd5;" horiz-adv-x="1802" d="M184 727q0 203 97 375t267 272.5t374 100.5q152 0 289 -59.5t235 -160t155.5 -238.5t57.5 -290t-57.5 -290t-155.5 -238.5t-235 -159.5t-289 -59q-204 0 -374 100.5t-267 272t-97 374.5zM397 727q0 -110 40 -210t109 -174t167.5 -117.5t208.5 -43.5q146 0 266.5 74 t188 199t67.5 272t-67.5 272t-188 199t-266.5 74q-110 0 -208.5 -43.5t-167.5 -117.5t-109 -174t-40 -210zM479 1731q10 108 70.5 177.5t177.5 69.5q52 0 101.5 -22.5t82 -49t76 -49t84.5 -22.5q55 0 85 29t30 82l178 -35q-8 -107 -69 -177.5t-177 -70.5q-52 0 -102 22.5 t-82 49t-76 49t-86 22.5q-53 0 -83 -30.5t-30 -79.5z" />
<glyph unicode="&#xd6;" horiz-adv-x="1802" d="M184 727q0 203 97 375t267 272.5t374 100.5q152 0 289 -59.5t235 -160t155.5 -238.5t57.5 -290t-57.5 -290t-155.5 -238.5t-235 -159.5t-289 -59q-204 0 -374 100.5t-267 272t-97 374.5zM397 727q0 -110 40 -210t109 -174t167.5 -117.5t208.5 -43.5q146 0 266.5 74 t188 199t67.5 272t-67.5 272t-188 199t-266.5 74q-110 0 -208.5 -43.5t-167.5 -117.5t-109 -174t-40 -210zM629 1835q0 47 33.5 81t80.5 34t81 -34t34 -81t-34 -81t-81 -34t-80.5 34t-33.5 81zM987 1835q0 47 34 81t81 34t81 -34t34 -81t-34 -81t-81 -34t-81 34t-34 81z" />
<glyph unicode="&#xd7;" horiz-adv-x="1077" d="M186 377l209 207l-207 207l144 143l207 -207l206 207l144 -143l-207 -207l207 -209l-144 -144l-208 209l-207 -207z" />
<glyph unicode="&#xd8;" horiz-adv-x="1802" d="M184 727q0 203 97 375t267 272.5t374 100.5q229 0 421 -132l146 193h80l-176 -231q125 -104 195.5 -255.5t70.5 -322.5q0 -152 -57.5 -290t-155.5 -238.5t-235 -159.5t-289 -59q-238 0 -428 137l-150 -199h-80l180 238q-122 104 -191 253t-69 318zM397 727 q0 -118 45.5 -223.5t126.5 -181.5l650 856q-134 94 -297 94q-110 0 -208.5 -43.5t-167.5 -117.5t-109 -174t-40 -210zM618 281q136 -99 304 -99q146 0 266.5 74t188 199t67.5 272q0 120 -46.5 228t-129.5 184z" />
<glyph unicode="&#xd9;" horiz-adv-x="1413" d="M152 610v844h215v-844q0 -226 92.5 -327t267.5 -101t267.5 101t92.5 327v844h213v-844q0 -317 -150.5 -473.5t-422.5 -156.5q-274 0 -424.5 156.5t-150.5 473.5zM428 1980h221l166 -313h-168z" />
<glyph unicode="&#xda;" horiz-adv-x="1413" d="M152 610v844h215v-844q0 -226 92.5 -327t267.5 -101t267.5 101t92.5 327v844h213v-844q0 -317 -150.5 -473.5t-422.5 -156.5q-274 0 -424.5 156.5t-150.5 473.5zM643 1667l166 313h221l-219 -313h-168z" />
<glyph unicode="&#xdb;" horiz-adv-x="1413" d="M152 610v844h215v-844q0 -226 92.5 -327t267.5 -101t267.5 101t92.5 327v844h213v-844q0 -317 -150.5 -473.5t-422.5 -156.5q-274 0 -424.5 156.5t-150.5 473.5zM410 1667l237 313h164l238 -313h-193l-127 197l-127 -197h-192z" />
<glyph unicode="&#xdc;" horiz-adv-x="1413" d="M152 610v844h215v-844q0 -226 92.5 -327t267.5 -101t267.5 101t92.5 327v844h213v-844q0 -317 -150.5 -473.5t-422.5 -156.5q-274 0 -424.5 156.5t-150.5 473.5zM434 1835q0 47 34 81t81 34t81 -34t34 -81t-34 -81t-81 -34t-81 34t-34 81zM793 1835q0 47 33.5 81t80.5 34 t81 -34t34 -81t-34 -81t-81 -34t-80.5 34t-33.5 81z" />
<glyph unicode="&#xdd;" horiz-adv-x="1515" d="M143 1454h242l393 -639l393 639h242l-528 -860v-594h-213v594zM694 1667l166 313h221l-219 -313h-168z" />
<glyph unicode="&#xde;" horiz-adv-x="1202" d="M143 0v1501h213v-274h256q144 0 261 -55t189.5 -167.5t72.5 -263.5q0 -115 -42 -208.5t-113.5 -153.5t-166 -92.5t-201.5 -32.5h-256v-254h-213zM356 457h256q138 0 223 73t85 211t-85 211.5t-223 73.5h-256v-569z" />
<glyph unicode="&#xdf;" horiz-adv-x="1384" d="M184 0v975q0 81 16 153t52.5 136t89.5 110.5t132.5 73.5t176.5 27q84 0 155.5 -24.5t120.5 -65t83.5 -92t50.5 -104.5t16 -104q0 -69 -27 -141.5t-79 -128.5q122 -61 196 -164t74 -237q0 -84 -26 -158.5t-76 -133.5t-131.5 -93.5t-184.5 -34.5q-157 0 -282 88v209 q127 -94 250 -94q117 0 177 63t60 166q0 125 -90.5 198.5t-232.5 73.5h-48v179h48q56 0 93.5 30t51.5 69t14 81q0 89 -57.5 152t-159.5 63q-115 0 -182.5 -80t-67.5 -217v-975h-213z" />
<glyph unicode="&#xe0;" d="M184 518q0 147 67.5 270.5t187.5 196t266 72.5q135 0 241 -66t152 -168l12 213h203v-1036h-203l-12 215q-46 -103 -151.5 -169t-241.5 -66q-109 0 -206 42.5t-166 115t-109 171.5t-40 209zM397 518q0 -140 98 -238t244 -98q143 0 239.5 98t96.5 238t-96.5 238t-239.5 98 q-146 0 -244 -98t-98 -238zM446 1563h222l166 -314h-168z" />
<glyph unicode="&#xe1;" d="M184 518q0 147 67.5 270.5t187.5 196t266 72.5q135 0 241 -66t152 -168l12 213h203v-1036h-203l-12 215q-46 -103 -151.5 -169t-241.5 -66q-109 0 -206 42.5t-166 115t-109 171.5t-40 209zM397 518q0 -140 98 -238t244 -98q143 0 239.5 98t96.5 238t-96.5 238t-239.5 98 q-146 0 -244 -98t-98 -238zM662 1249l165 314h222l-220 -314h-167z" />
<glyph unicode="&#xe2;" d="M184 518q0 147 67.5 270.5t187.5 196t266 72.5q135 0 241 -66t152 -168l12 213h203v-1036h-203l-12 215q-46 -103 -151.5 -169t-241.5 -66q-109 0 -206 42.5t-166 115t-109 171.5t-40 209zM397 518q0 -140 98 -238t244 -98q143 0 239.5 98t96.5 238t-96.5 238t-239.5 98 q-146 0 -244 -98t-98 -238zM428 1249l238 314h163l238 -314h-193l-126 197l-127 -197h-193z" />
<glyph unicode="&#xe3;" d="M184 518q0 147 67.5 270.5t187.5 196t266 72.5q135 0 241 -66t152 -168l12 213h203v-1036h-203l-12 215q-46 -103 -151.5 -169t-241.5 -66q-109 0 -206 42.5t-166 115t-109 171.5t-40 209zM303 1313q10 108 70.5 178t177.5 70q52 0 101.5 -22.5t82 -49.5t76 -49.5 t84.5 -22.5q55 0 85 29t30 82l178 -35q-8 -107 -69 -177.5t-177 -70.5q-52 0 -102 22.5t-82 49.5t-76 49.5t-86 22.5q-53 0 -83 -31t-30 -80zM397 518q0 -140 98 -238t244 -98q143 0 239.5 98t96.5 238t-96.5 238t-239.5 98q-146 0 -244 -98t-98 -238z" />
<glyph unicode="&#xe4;" d="M184 518q0 147 67.5 270.5t187.5 196t266 72.5q135 0 241 -66t152 -168l12 213h203v-1036h-203l-12 215q-46 -103 -151.5 -169t-241.5 -66q-109 0 -206 42.5t-166 115t-109 171.5t-40 209zM397 518q0 -140 98 -238t244 -98q143 0 239.5 98t96.5 238t-96.5 238t-239.5 98 q-146 0 -244 -98t-98 -238zM453 1417q0 47 33.5 81t80.5 34t81 -34t34 -81t-34 -80.5t-81 -33.5t-80.5 33.5t-33.5 80.5zM811 1417q0 47 34 81t81 34t80.5 -34t33.5 -81t-33.5 -80.5t-80.5 -33.5t-81 33.5t-34 80.5z" />
<glyph unicode="&#xe5;" d="M184 518q0 147 67.5 270.5t187.5 196t266 72.5q135 0 241 -66t152 -168l12 213h203v-1036h-203l-12 215q-46 -103 -151.5 -169t-241.5 -66q-109 0 -206 42.5t-166 115t-109 171.5t-40 209zM397 518q0 -140 98 -238t244 -98q143 0 239.5 98t96.5 238t-96.5 238t-239.5 98 q-146 0 -244 -98t-98 -238zM584 1421q0 68 47 115t114 47t114.5 -47.5t47.5 -114.5t-47 -114t-115 -47q-67 0 -114 47t-47 114zM682 1421q0 -26 18.5 -44.5t44.5 -18.5t45 18.5t19 44.5t-19 45t-45 19t-44.5 -19t-18.5 -45z" />
<glyph unicode="&#xe6;" horiz-adv-x="2390" d="M184 518q0 147 67.5 270.5t187.5 196t266 72.5q135 0 241 -66t152 -168l12 213h203v-188q69 98 176.5 153.5t239.5 55.5q155 0 274.5 -76.5t181.5 -201t62 -273.5v-53h-822q5 -122 91.5 -202.5t230.5 -80.5q104 0 177 47t110 115l188 -21q-12 -45 -36.5 -89.5 t-66.5 -88.5t-95 -77.5t-125.5 -54.5t-153.5 -21q-137 0 -249.5 56.5t-182.5 156.5v-193h-203l-12 215q-46 -103 -151.5 -169t-241.5 -66q-109 0 -206 42.5t-166 115t-109 171.5t-40 209zM397 518q0 -140 98 -238t244 -98q143 0 239.5 98t96.5 238t-96.5 238t-239.5 98 q-146 0 -244 -98t-98 -238zM1425 602h609q-6 109 -90.5 186.5t-214.5 77.5q-127 0 -213 -76.5t-91 -187.5z" />
<glyph unicode="&#xe7;" horiz-adv-x="1175" d="M184 518q0 144 69.5 267.5t193 197.5t272.5 74q191 0 313 -115v-205q-120 117 -280 117q-136 0 -239 -96t-103 -240t103 -240t239 -96q158 0 280 119v-207q-109 -101 -272 -112l-47 -84q91 -2 144.5 -37t53.5 -103q0 -29 -11.5 -54t-27 -42t-44 -31t-51.5 -22.5 t-60.5 -14.5t-59 -8.5t-60 -4t-50.5 -1.5h-43l41 103q37 0 63.5 0.5t57.5 3t51 7.5t38.5 12.5t27 19.5t8.5 28q0 62 -125 62l-121 -4l69 178q-188 35 -309 184.5t-121 343.5z" />
<glyph unicode="&#xe8;" horiz-adv-x="1363" d="M184 524q0 108 37.5 205t104 170t164.5 115.5t212 42.5q116 0 215 -44.5t164.5 -120t102.5 -175.5t37 -211v-53h-824q5 -124 92 -203.5t232 -79.5q104 0 177 47t110 115l186 -21q-14 -56 -51 -112.5t-94.5 -106.5t-143.5 -81t-186 -31q-234 0 -384.5 155t-150.5 389z M397 602h609q-6 109 -90 186.5t-214 77.5q-128 0 -213.5 -76.5t-91.5 -187.5zM403 1563h222l166 -314h-168z" />
<glyph unicode="&#xe9;" horiz-adv-x="1363" d="M184 524q0 108 37.5 205t104 170t164.5 115.5t212 42.5q116 0 215 -44.5t164.5 -120t102.5 -175.5t37 -211v-53h-824q5 -124 92 -203.5t232 -79.5q104 0 177 47t110 115l186 -21q-14 -56 -51 -112.5t-94.5 -106.5t-143.5 -81t-186 -31q-234 0 -384.5 155t-150.5 389z M397 602h609q-6 109 -90 186.5t-214 77.5q-128 0 -213.5 -76.5t-91.5 -187.5zM618 1249l166 314h222l-220 -314h-168z" />
<glyph unicode="&#xea;" horiz-adv-x="1363" d="M184 524q0 108 37.5 205t104 170t164.5 115.5t212 42.5q116 0 215 -44.5t164.5 -120t102.5 -175.5t37 -211v-53h-824q5 -124 92 -203.5t232 -79.5q104 0 177 47t110 115l186 -21q-14 -56 -51 -112.5t-94.5 -106.5t-143.5 -81t-186 -31q-234 0 -384.5 155t-150.5 389z M385 1249l238 314h163l238 -314h-193l-126 197l-127 -197h-193zM397 602h609q-6 109 -90 186.5t-214 77.5q-128 0 -213.5 -76.5t-91.5 -187.5z" />
<glyph unicode="&#xeb;" horiz-adv-x="1363" d="M184 524q0 108 37.5 205t104 170t164.5 115.5t212 42.5q116 0 215 -44.5t164.5 -120t102.5 -175.5t37 -211v-53h-824q5 -124 92 -203.5t232 -79.5q104 0 177 47t110 115l186 -21q-14 -56 -51 -112.5t-94.5 -106.5t-143.5 -81t-186 -31q-234 0 -384.5 155t-150.5 389z M397 602h609q-6 109 -90 186.5t-214 77.5q-128 0 -213.5 -76.5t-91.5 -187.5zM410 1417q0 47 33.5 81t80.5 34t81 -34t34 -81t-34 -80.5t-81 -33.5t-80.5 33.5t-33.5 80.5zM768 1417q0 47 34 81t81 34t80.5 -34t33.5 -81t-33.5 -80.5t-80.5 -33.5t-81 33.5t-34 80.5z" />
<glyph unicode="&#xec;" horiz-adv-x="458" d="M-68 1563h222l165 -314h-167zM123 0v1036h213v-1036h-213z" />
<glyph unicode="&#xed;" horiz-adv-x="458" d="M123 0v1036h213v-1036h-213zM147 1249l166 314h222l-220 -314h-168z" />
<glyph unicode="&#xee;" horiz-adv-x="458" d="M-86 1249l238 314h163l238 -314h-193l-127 197l-127 -197h-192zM123 0v1036h213v-1036h-213z" />
<glyph unicode="&#xef;" horiz-adv-x="458" d="M-59 1311q0 48 32.5 81t81.5 33q47 0 81 -33.5t34 -80.5t-34 -81t-81 -34q-49 0 -81.5 33.5t-32.5 81.5zM123 0v1036h213v-1036h-213zM299 1311q0 47 34 80.5t81 33.5t80.5 -33.5t33.5 -80.5t-33.5 -81t-80.5 -34t-81 34t-34 81z" />
<glyph unicode="&#xf0;" horiz-adv-x="1349" d="M184 467q0 98 39 188t106 155.5t162 104.5t201 39q99 0 193 -32q-82 151 -246 235l-240 -182v80l174 131q-120 46 -284 65v203q261 -18 465 -133l213 162v-80l-156 -117q187 -123 291 -323t104 -461q0 -227 -146 -374.5t-368 -147.5q-106 0 -201 38.5t-162 104 t-106 155.5t-39 189zM397 467q0 -119 86 -202t211 -83q127 0 212 83t85 202q0 32 -6 59l-16 2q0 36 -2 54q-34 76 -107.5 123t-165.5 47q-125 0 -211 -83.5t-86 -201.5z" />
<glyph unicode="&#xf1;" horiz-adv-x="1310" d="M184 0v1036h201l10 -166q176 187 400 187q183 0 282 -116.5t99 -332.5v-608h-213v514q0 340 -250 340q-73 0 -133 -27t-98 -72t-59.5 -100t-25.5 -114v-541h-213zM233 1313q10 108 70.5 178t177.5 70q52 0 101.5 -22.5t82 -49.5t76 -49.5t84.5 -22.5q55 0 85 29t30 82 l178 -35q-8 -107 -69 -177.5t-177 -70.5q-52 0 -102 22.5t-82 49.5t-76 49.5t-86 22.5q-53 0 -82.5 -31t-29.5 -80z" />
<glyph unicode="&#xf2;" horiz-adv-x="1431" d="M184 518q0 147 71 270.5t198.5 196t285.5 72.5q155 0 281.5 -72.5t197 -196t70.5 -270.5t-70.5 -270t-197 -195.5t-281.5 -72.5q-158 0 -285.5 72.5t-198.5 195.5t-71 270zM397 518q0 -140 98 -238t244 -98q143 0 239.5 98t96.5 238t-96.5 238t-239.5 98q-146 0 -244 -98 t-98 -238zM440 1563h222l165 -314h-168z" />
<glyph unicode="&#xf3;" horiz-adv-x="1431" d="M184 518q0 147 71 270.5t198.5 196t285.5 72.5q155 0 281.5 -72.5t197 -196t70.5 -270.5t-70.5 -270t-197 -195.5t-281.5 -72.5q-158 0 -285.5 72.5t-198.5 195.5t-71 270zM397 518q0 -140 98 -238t244 -98q143 0 239.5 98t96.5 238t-96.5 238t-239.5 98q-146 0 -244 -98 t-98 -238zM655 1249l166 314h221l-219 -314h-168z" />
<glyph unicode="&#xf4;" horiz-adv-x="1431" d="M184 518q0 147 71 270.5t198.5 196t285.5 72.5q155 0 281.5 -72.5t197 -196t70.5 -270.5t-70.5 -270t-197 -195.5t-281.5 -72.5q-158 0 -285.5 72.5t-198.5 195.5t-71 270zM397 518q0 -140 98 -238t244 -98q143 0 239.5 98t96.5 238t-96.5 238t-239.5 98q-146 0 -244 -98 t-98 -238zM422 1249l237 314h164l238 -314h-193l-127 197l-127 -197h-192z" />
<glyph unicode="&#xf5;" horiz-adv-x="1431" d="M184 518q0 147 71 270.5t198.5 196t285.5 72.5q155 0 281.5 -72.5t197 -196t70.5 -270.5t-70.5 -270t-197 -195.5t-281.5 -72.5q-158 0 -285.5 72.5t-198.5 195.5t-71 270zM297 1313q10 108 70.5 178t177.5 70q52 0 101.5 -22.5t82 -49.5t76 -49.5t84.5 -22.5q55 0 85 29 t30 82l178 -35q-8 -107 -69 -177.5t-177 -70.5q-52 0 -102 22.5t-82 49.5t-76 49.5t-86 22.5q-53 0 -83 -31t-30 -80zM397 518q0 -140 98 -238t244 -98q143 0 239.5 98t96.5 238t-96.5 238t-239.5 98q-146 0 -244 -98t-98 -238z" />
<glyph unicode="&#xf6;" horiz-adv-x="1431" d="M184 518q0 147 71 270.5t198.5 196t285.5 72.5q155 0 281.5 -72.5t197 -196t70.5 -270.5t-70.5 -270t-197 -195.5t-281.5 -72.5q-158 0 -285.5 72.5t-198.5 195.5t-71 270zM397 518q0 -140 98 -238t244 -98q143 0 239.5 98t96.5 238t-96.5 238t-239.5 98q-146 0 -244 -98 t-98 -238zM446 1417q0 47 34 81t81 34t81 -34t34 -81t-34 -80.5t-81 -33.5t-81 33.5t-34 80.5zM805 1417q0 47 34 81t81 34t80.5 -34t33.5 -81t-33.5 -80.5t-80.5 -33.5t-81 33.5t-34 80.5z" />
<glyph unicode="&#xf7;" horiz-adv-x="1185" d="M227 481v203h789v-203h-789zM508 256q0 49 32.5 82t80.5 33q49 0 81.5 -32.5t32.5 -82.5q0 -48 -32.5 -81.5t-81.5 -33.5q-47 0 -80 34t-33 81zM508 897q0 47 33 81t80 34q49 0 81.5 -33.5t32.5 -81.5q0 -50 -32.5 -82.5t-81.5 -32.5q-48 0 -80.5 33t-32.5 82z" />
<glyph unicode="&#xf8;" horiz-adv-x="1431" d="M182 518q0 147 71.5 270.5t199.5 196t284 72.5q167 0 303 -84l84 110h80l-112 -147q93 -76 144.5 -184.5t51.5 -233.5q0 -147 -70.5 -270t-197.5 -195.5t-283 -72.5q-171 0 -305 86l-84 -113h-80l113 149q-94 75 -146.5 183.5t-52.5 232.5zM397 518q0 -73 29 -138.5 t82 -111.5l405 539q-79 47 -176 47q-145 0 -242.5 -98t-97.5 -238zM559 231q81 -49 178 -49q144 0 240 98t96 238q0 73 -28.5 138.5t-79.5 111.5z" />
<glyph unicode="&#xf9;" horiz-adv-x="1310" d="M176 428v608h213v-514q0 -340 250 -340q77 0 138.5 29.5t99 79t57.5 108.5t20 121v516h213v-1036h-200l-11 166q-175 -186 -399 -186q-183 0 -282 116t-99 332zM387 1563h221l166 -314h-168z" />
<glyph unicode="&#xfa;" horiz-adv-x="1310" d="M176 428v608h213v-514q0 -340 250 -340q77 0 138.5 29.5t99 79t57.5 108.5t20 121v516h213v-1036h-200l-11 166q-175 -186 -399 -186q-183 0 -282 116t-99 332zM602 1249l166 314h221l-219 -314h-168z" />
<glyph unicode="&#xfb;" horiz-adv-x="1310" d="M176 428v608h213v-514q0 -340 250 -340q77 0 138.5 29.5t99 79t57.5 108.5t20 121v516h213v-1036h-200l-11 166q-175 -186 -399 -186q-183 0 -282 116t-99 332zM369 1249l237 314h164l238 -314h-193l-127 197l-127 -197h-192z" />
<glyph unicode="&#xfc;" horiz-adv-x="1310" d="M176 428v608h213v-514q0 -340 250 -340q77 0 138.5 29.5t99 79t57.5 108.5t20 121v516h213v-1036h-200l-11 166q-175 -186 -399 -186q-183 0 -282 116t-99 332zM393 1417q0 47 34 81t81 34t81 -34t34 -81t-34 -80.5t-81 -33.5t-81 33.5t-34 80.5zM752 1417q0 47 33.5 81 t80.5 34t81 -34t34 -81t-34 -80.5t-81 -33.5t-80.5 33.5t-33.5 80.5z" />
<glyph unicode="&#xfd;" horiz-adv-x="1402" d="M164 1036h229l332 -770l326 770h229l-647 -1507h-225l202 473zM649 1249l166 314h221l-219 -314h-168z" />
<glyph unicode="&#xfe;" horiz-adv-x="1431" d="M184 -471v2007h213v-702q46 100 148 161.5t225 61.5q146 0 265 -72.5t186 -196t67 -270.5t-67 -270t-186 -195.5t-265 -72.5q-123 0 -225 61.5t-148 161.5v-674h-213zM387 518q0 -140 96 -238t240 -98q145 0 242.5 98t97.5 238t-97.5 238t-242.5 98q-144 0 -240 -98 t-96 -238z" />
<glyph unicode="&#xff;" horiz-adv-x="1402" d="M164 1036h229l332 -770l326 770h229l-647 -1507h-225l202 473zM440 1417q0 47 34 81t81 34t81 -34t34 -81t-34 -80.5t-81 -33.5t-81 33.5t-34 80.5zM799 1417q0 47 33.5 81t80.5 34t81 -34t34 -81t-34 -80.5t-81 -33.5t-80.5 33.5t-33.5 80.5z" />
<glyph unicode="&#x152;" horiz-adv-x="2420" d="M184 727q0 203 97 375t267 272.5t374 100.5q188 0 348 -87t260 -237v303h797v-203h-584v-403h455v-203h-455v-442h584v-203h-797v303q-100 -149 -260 -236t-348 -87q-204 0 -374 100.5t-267 272t-97 374.5zM397 727q0 -110 40 -210t109 -174t167.5 -117.5t208.5 -43.5 q146 0 266.5 74t188 199t67.5 272t-67.5 272t-188 199t-266.5 74q-110 0 -208.5 -43.5t-167.5 -117.5t-109 -174t-40 -210z" />
<glyph unicode="&#x153;" horiz-adv-x="2217" d="M184 518q0 147 71 270.5t198.5 196t285.5 72.5q140 0 257 -59t192 -162q66 103 173.5 162t240.5 59q219 0 346 -151.5t127 -397.5v-74h-758q40 -274 358 -274q137 0 342 96v-156q-68 -54 -170.5 -87t-210.5 -33q-149 0 -264 58t-184 163q-74 -102 -191.5 -161.5 t-257.5 -59.5q-158 0 -285.5 72.5t-198.5 195.5t-71 270zM397 518q0 -140 98 -238t244 -98q143 0 239.5 98t96.5 238t-96.5 238t-239.5 98q-146 0 -244 -98t-98 -238zM1319 592h549q-15 131 -81.5 202.5t-180.5 71.5q-115 0 -192 -70.5t-95 -203.5z" />
<glyph unicode="&#x178;" horiz-adv-x="1515" d="M143 1454h242l393 -639l393 639h242l-528 -860v-594h-213v594zM485 1835q0 47 34 81t81 34t81 -34t34 -81t-34 -81t-81 -34t-81 34t-34 81zM844 1835q0 47 33.5 81t80.5 34t81 -34t34 -81t-34 -81t-81 -34t-80.5 34t-33.5 81z" />
<glyph unicode="&#x2c6;" horiz-adv-x="1048" d="M205 1176l237 313h164l238 -313h-193l-127 196l-127 -196h-192z" />
<glyph unicode="&#x2dc;" horiz-adv-x="1294" d="M205 1239q10 108 70.5 178t177.5 70q52 0 101.5 -22.5t82 -49.5t76 -49.5t84.5 -22.5q55 0 84.5 29t29.5 82l179 -35q-8 -107 -69 -177.5t-177 -70.5q-52 0 -102 22.5t-82 49.5t-76 49.5t-86 22.5q-53 0 -83 -31t-30 -80z" />
<glyph unicode="&#x2000;" horiz-adv-x="1000" />
<glyph unicode="&#x2001;" horiz-adv-x="2001" />
<glyph unicode="&#x2002;" horiz-adv-x="1000" />
<glyph unicode="&#x2003;" horiz-adv-x="2001" />
<glyph unicode="&#x2004;" horiz-adv-x="667" />
<glyph unicode="&#x2005;" horiz-adv-x="500" />
<glyph unicode="&#x2006;" horiz-adv-x="333" />
<glyph unicode="&#x2007;" horiz-adv-x="333" />
<glyph unicode="&#x2008;" horiz-adv-x="250" />
<glyph unicode="&#x2009;" horiz-adv-x="400" />
<glyph unicode="&#x200a;" horiz-adv-x="111" />
<glyph unicode="&#x2010;" horiz-adv-x="1120" d="M186 451v202h789v-202h-789z" />
<glyph unicode="&#x2011;" horiz-adv-x="1120" d="M186 451v202h789v-202h-789z" />
<glyph unicode="&#x2012;" horiz-adv-x="1120" d="M186 451v202h789v-202h-789z" />
<glyph unicode="&#x2013;" horiz-adv-x="1873" d="M61 451v202h1772v-202h-1772z" />
<glyph unicode="&#x2014;" horiz-adv-x="2463" d="M61 451v202h2362v-202h-2362z" />
<glyph unicode="&#x2018;" horiz-adv-x="526" d="M100 1085l156 416h168l-100 -416h-224z" />
<glyph unicode="&#x2019;" horiz-adv-x="526" d="M98 1085l101 416h223l-156 -416h-168z" />
<glyph unicode="&#x201a;" horiz-adv-x="817" d="M61 -291l101 416h223l-156 -416h-168z" />
<glyph unicode="&#x201c;" horiz-adv-x="864" d="M115 1083l155 416h168l-100 -416h-223zM451 1083l155 416h168l-100 -416h-223z" />
<glyph unicode="&#x201d;" horiz-adv-x="864" d="M94 1085l101 416h223l-156 -416h-168zM430 1085l100 416h224l-156 -416h-168z" />
<glyph unicode="&#x201e;" horiz-adv-x="817" d="M61 -291l101 416h223l-156 -416h-168z" />
<glyph unicode="&#x2022;" horiz-adv-x="507" d="M61 606q0 70 50.5 121t121.5 51q72 0 122.5 -50.5t50.5 -121.5q0 -73 -50.5 -122.5t-122.5 -49.5q-71 0 -121.5 49.5t-50.5 122.5z" />
<glyph unicode="&#x2026;" horiz-adv-x="1056" d="M61 94q0 47 34 81t81 34t81 -34t34 -81t-34 -80.5t-81 -33.5t-81 33.5t-34 80.5zM393 94q0 48 33 81.5t82 33.5q47 0 81 -34t34 -81t-34 -80.5t-81 -33.5q-49 0 -82 33t-33 81zM725 94q0 48 33 81.5t82 33.5q47 0 80.5 -34t33.5 -81t-33.5 -80.5t-80.5 -33.5 q-49 0 -82 33t-33 81z" />
<glyph unicode="&#x202f;" horiz-adv-x="400" />
<glyph unicode="&#x2039;" horiz-adv-x="856" d="M205 494l252 362h235l-252 -362l252 -363h-235z" />
<glyph unicode="&#x203a;" horiz-adv-x="798" d="M147 131l252 363l-252 362h236l252 -362l-252 -363h-236z" />
<glyph unicode="&#x205f;" horiz-adv-x="500" />
<glyph unicode="&#x20ac;" horiz-adv-x="1835" d="M205 504l14 65h260q-9 37 -12 78h-213l14 66h195v14q0 155 56.5 293.5t153.5 238.5t232 158t285 58q144 0 251.5 -42.5t174.5 -101.5v-217q-60 63 -162 110.5t-240 47.5q-109 0 -207.5 -41.5t-171.5 -112.5t-116 -173t-43 -218v-14h536l-14 -66h-516q3 -36 16 -78h465 l-14 -65h-428q63 -147 197 -234.5t296 -87.5q137 0 238.5 48t163.5 110v-217q-67 -58 -174.5 -100.5t-251.5 -42.5q-246 0 -437 145.5t-259 378.5h-289z" />
<glyph unicode="&#x2122;" horiz-adv-x="1765" d="M164 1298v156h575v-156h-221v-458h-133v458h-221zM840 840v614h133l248 -416l247 416h134v-614h-134v379l-225 -379h-45l-225 379v-379h-133z" />
<glyph unicode="&#x25fc;" horiz-adv-x="1034" d="M0 0v1034h1034v-1034h-1034z" />
</font>
</defs>
</svg>
