<svg width="20" height="20" viewBox="0 0 20 20" version="1.1" xmlns="http://www.w3.org/2000/svg"><path d="M17.4413 6.25577c.7449.7448.7449 1.95236 0 2.69716L8.81405 17.5791c-.26829.2682-.63216.4189-1.01157.4189h-3.3719C3.64049 17.998 3 17.3576 3 16.5676v-3.3714c0-.3794.15072-.7432.41901-1.0115l8.62729-8.6261c.7449-.7448 1.9526-.7448 2.6975 0l2.6975 2.69717zM16.0926 7.6043l-2.6975-2.69717-6.62463 6.62377 2.69752 2.6971 6.62461-6.6237zm-7.97337 7.9723l-2.69752-2.6972-.44072.4407.01168 2.6855 2.68584.0117.44072-.4407z"></path></svg>